<svg width="240" height="29" viewBox="0 0 240 29" fill="none" xmlns="http://www.w3.org/2000/svg">
<path d="M0.851658 27.1507C0.611661 27.2639 0.508879 27.5502 0.622087 27.7902C0.735296 28.0302 1.02163 28.133 1.26162 28.0198L0.851658 27.1507ZM239.371 27.5852L236.186 23.0425L233.845 28.0721L239.371 27.5852ZM1.26162 28.0198C2.10309 27.6229 2.94686 27.23 3.7929 26.8413L3.39169 25.9681C2.54272 26.3582 1.69603 26.7524 0.851658 27.1507L1.26162 28.0198ZM8.89101 24.5606C10.5965 23.8182 12.3109 23.0922 14.0339 22.383L13.6682 21.4944C11.9392 22.2061 10.2189 22.9345 8.50745 23.6795L8.89101 24.5606ZM19.2197 20.3094C20.9535 19.6363 22.6957 18.98 24.4461 18.3408L24.1165 17.4381C22.36 18.0796 20.6118 18.7382 18.872 19.4136L19.2197 20.3094ZM29.7114 16.4778C31.4706 15.8752 33.2378 15.2897 35.0127 14.7214L34.7197 13.8062C32.9387 14.3764 31.1653 14.964 29.4 15.5687L29.7114 16.4778ZM40.349 13.0722C42.1308 12.5411 43.9201 12.0274 45.7167 11.5311L45.4608 10.6048C43.658 11.1028 41.8625 11.6184 40.0745 12.1513L40.349 13.0722ZM51.1153 10.0983C52.9168 9.63956 54.7252 9.19835 56.5405 8.77486L56.3222 7.83904C54.5006 8.264 52.6859 8.70674 50.8782 9.16706L51.1153 10.0983ZM61.9928 7.56062C63.8109 7.17488 65.6356 6.80684 67.4666 6.45669L67.2861 5.51285C65.4488 5.86421 63.6178 6.23352 61.7933 6.62059L61.9928 7.56062ZM72.9631 5.46273C74.7951 5.1504 76.6332 4.85592 78.4772 4.57947L78.3348 3.62915C76.4844 3.90654 74.6399 4.20204 72.8016 4.51545L72.9631 5.46273ZM84.0088 3.80677C85.8518 3.5681 87.7004 3.3474 89.5545 3.14486L89.4501 2.18959C87.5897 2.39283 85.7347 2.61429 83.8853 2.85378L84.0088 3.80677ZM95.1119 2.59375C96.963 2.42879 98.8193 2.28189 100.681 2.15324L100.614 1.19458C98.7466 1.32367 96.884 1.47107 95.0266 1.6366L95.1119 2.59375ZM106.255 1.8234C108.111 1.73201 109.971 1.65874 111.837 1.60377L111.808 0.643239C109.937 0.698398 108.07 0.771916 106.208 0.86362L106.255 1.8234ZM117.42 1.49417C118.35 1.48504 119.282 1.48047 120.214 1.48047V0.519527C119.278 0.519527 118.344 0.524113 117.411 0.533265L117.42 1.49417ZM120.214 1.48047C121.146 1.48047 122.078 1.48504 123.008 1.49417L123.017 0.533265C122.084 0.524113 121.15 0.519527 120.214 0.519527V1.48047ZM128.591 1.60377C130.457 1.65874 132.317 1.73201 134.173 1.8234L134.22 0.863618C132.358 0.771915 130.491 0.698397 128.62 0.643238L128.591 1.60377ZM139.747 2.15324C141.609 2.28189 143.465 2.42878 145.316 2.59375L145.401 1.6366C143.544 1.47107 141.681 1.32367 139.814 1.19458L139.747 2.15324ZM150.873 3.14485C152.728 3.3474 154.576 3.5681 156.419 3.80677L156.543 2.85378C154.693 2.61429 152.838 2.39283 150.978 2.18959L150.873 3.14485ZM161.951 4.57947C163.795 4.85592 165.633 5.1504 167.465 5.46273L167.626 4.51545C165.788 4.20204 163.944 3.90654 162.093 3.62914L161.951 4.57947ZM172.961 6.45669C174.792 6.80684 176.617 7.17488 178.435 7.56061L178.635 6.62059C176.81 6.23352 174.979 5.86421 173.142 5.51284L172.961 6.45669ZM183.887 8.77485C185.703 9.19835 187.511 9.63955 189.313 10.0983L189.55 9.16705C187.742 8.70673 185.927 8.264 184.106 7.83903L183.887 8.77485ZM194.711 11.5311C196.508 12.0274 198.297 12.5411 200.079 13.0722L200.353 12.1513C198.565 11.6184 196.77 11.1028 194.967 10.6048L194.711 11.5311ZM205.415 14.7214C207.19 15.2897 208.957 15.8752 210.717 16.4778L211.028 15.5687C209.263 14.964 207.489 14.3764 205.708 13.8062L205.415 14.7214ZM215.982 18.3408C217.732 18.98 219.474 19.6363 221.208 20.3094L221.556 19.4136C219.816 18.7382 218.068 18.0796 216.311 17.4381L215.982 18.3408ZM226.394 22.383C228.117 23.0922 229.831 23.8181 231.537 24.5606L231.92 23.6795C230.209 22.9345 228.489 22.2061 226.76 21.4944L226.394 22.383ZM0.851658 27.1507C0.611661 27.2639 0.508879 27.5502 0.622087 27.7902C0.735296 28.0302 1.02163 28.133 1.26162 28.0198L0.851658 27.1507ZM239.371 27.5852L236.186 23.0425L233.845 28.0721L239.371 27.5852ZM1.26162 28.0198C2.10309 27.6229 2.94686 27.23 3.7929 26.8413L3.39169 25.9681C2.54272 26.3582 1.69603 26.7524 0.851658 27.1507L1.26162 28.0198ZM8.89101 24.5606C10.5965 23.8182 12.3109 23.0922 14.0339 22.383L13.6682 21.4944C11.9392 22.2061 10.2189 22.9345 8.50745 23.6795L8.89101 24.5606ZM19.2197 20.3094C20.9535 19.6363 22.6957 18.98 24.4461 18.3408L24.1165 17.4381C22.36 18.0796 20.6118 18.7382 18.872 19.4136L19.2197 20.3094ZM29.7114 16.4778C31.4706 15.8752 33.2378 15.2897 35.0127 14.7214L34.7197 13.8062C32.9387 14.3764 31.1653 14.964 29.4 15.5687L29.7114 16.4778ZM40.349 13.0722C42.1308 12.5411 43.9201 12.0274 45.7167 11.5311L45.4608 10.6048C43.658 11.1028 41.8625 11.6184 40.0745 12.1513L40.349 13.0722ZM51.1153 10.0983C52.9168 9.63956 54.7252 9.19835 56.5405 8.77486L56.3222 7.83904C54.5006 8.264 52.6859 8.70674 50.8782 9.16706L51.1153 10.0983ZM61.9928 7.56062C63.8109 7.17488 65.6356 6.80684 67.4666 6.45669L67.2861 5.51285C65.4488 5.86421 63.6178 6.23352 61.7933 6.62059L61.9928 7.56062ZM72.9631 5.46273C74.7951 5.1504 76.6332 4.85592 78.4772 4.57947L78.3348 3.62915C76.4844 3.90654 74.6399 4.20204 72.8016 4.51545L72.9631 5.46273ZM84.0088 3.80677C85.8518 3.5681 87.7004 3.3474 89.5545 3.14486L89.4501 2.18959C87.5897 2.39283 85.7347 2.61429 83.8853 2.85378L84.0088 3.80677ZM95.1119 2.59375C96.963 2.42879 98.8193 2.28189 100.681 2.15324L100.614 1.19458C98.7466 1.32367 96.884 1.47107 95.0266 1.6366L95.1119 2.59375ZM106.255 1.8234C108.111 1.73201 109.971 1.65874 111.837 1.60377L111.808 0.643239C109.937 0.698398 108.07 0.771916 106.208 0.86362L106.255 1.8234ZM117.42 1.49417C118.35 1.48504 119.282 1.48047 120.214 1.48047V0.519527C119.278 0.519527 118.344 0.524113 117.411 0.533265L117.42 1.49417ZM120.214 1.48047C121.146 1.48047 122.078 1.48504 123.008 1.49417L123.017 0.533265C122.084 0.524113 121.15 0.519527 120.214 0.519527V1.48047ZM128.591 1.60377C130.457 1.65874 132.317 1.73201 134.173 1.8234L134.22 0.863618C132.358 0.771915 130.491 0.698397 128.62 0.643238L128.591 1.60377ZM139.747 2.15324C141.609 2.28189 143.465 2.42878 145.316 2.59375L145.401 1.6366C143.544 1.47107 141.681 1.32367 139.814 1.19458L139.747 2.15324ZM150.873 3.14485C152.728 3.3474 154.576 3.5681 156.419 3.80677L156.543 2.85378C154.693 2.61429 152.838 2.39283 150.978 2.18959L150.873 3.14485ZM161.951 4.57947C163.795 4.85592 165.633 5.1504 167.465 5.46273L167.626 4.51545C165.788 4.20204 163.944 3.90654 162.093 3.62914L161.951 4.57947ZM172.961 6.45669C174.792 6.80684 176.617 7.17488 178.435 7.56061L178.635 6.62059C176.81 6.23352 174.979 5.86421 173.142 5.51284L172.961 6.45669ZM183.887 8.77485C185.703 9.19835 187.511 9.63955 189.313 10.0983L189.55 9.16705C187.742 8.70673 185.927 8.264 184.106 7.83903L183.887 8.77485ZM194.711 11.5311C196.508 12.0274 198.297 12.5411 200.079 13.0722L200.353 12.1513C198.565 11.6184 196.77 11.1028 194.967 10.6048L194.711 11.5311ZM205.415 14.7214C207.19 15.2897 208.957 15.8752 210.717 16.4778L211.028 15.5687C209.263 14.964 207.489 14.3764 205.708 13.8062L205.415 14.7214ZM215.982 18.3408C217.732 18.98 219.474 19.6363 221.208 20.3094L221.556 19.4136C219.816 18.7382 218.068 18.0796 216.311 17.4381L215.982 18.3408ZM226.394 22.383C228.117 23.0922 229.831 23.8181 231.537 24.5606L231.92 23.6795C230.209 22.9345 228.489 22.2061 226.76 21.4944L226.394 22.383Z" fill="#1B1D21"/>
</svg>
