<svg width="239" height="28" viewBox="0 0 239 28" fill="none" xmlns="http://www.w3.org/2000/svg">
<path d="M0.464939 0.943804C0.224942 0.830595 0.12216 0.544266 0.235369 0.304268C0.348577 0.06427 0.634907 -0.0385113 0.874904 0.0746975L0.464939 0.943804ZM238.985 0.509251L235.8 5.05202L233.458 0.0224018L238.985 0.509251ZM0.874904 0.0746975C1.71637 0.471624 2.56014 0.86447 3.40618 1.25321L3.00498 2.12639C2.156 1.73631 1.30932 1.3421 0.464939 0.943804L0.874904 0.0746975ZM8.50429 3.53386C10.2098 4.27633 11.9242 5.00226 13.6472 5.71144L13.2815 6.60006C11.5525 5.88842 9.83215 5.15998 8.12073 4.41494L8.50429 3.53386ZM18.833 7.78506C20.5668 8.45817 22.309 9.11445 24.0594 9.75371L23.7297 10.6563C21.9733 10.0149 20.2251 9.35631 18.4853 8.68087L18.833 7.78506ZM29.3247 11.6167C31.0839 12.2193 32.8511 12.8048 34.626 13.373L34.333 14.2882C32.5519 13.718 30.7786 13.1305 29.0133 12.5258L29.3247 11.6167ZM39.9622 15.0223C41.7441 15.5534 43.5334 16.0671 45.3299 16.5634L45.0741 17.4896C43.2713 16.9917 41.4758 16.4761 39.6878 15.9432L39.9622 15.0223ZM50.7286 17.9962C52.5301 18.4549 54.3385 18.8961 56.1538 19.3196L55.9355 20.2554C54.1139 19.8305 52.2992 19.3877 50.4915 18.9274L50.7286 17.9962ZM61.6061 20.5339C63.4242 20.9196 65.2489 21.2876 67.0799 21.6378L66.8994 22.5816C65.0621 22.2303 63.2311 21.861 61.4066 21.4739L61.6061 20.5339ZM72.5764 22.6318C74.4084 22.9441 76.2465 23.2386 78.0905 23.515L77.9481 24.4653C76.0977 24.1879 74.2532 23.8924 72.4149 23.579L72.5764 22.6318ZM83.622 24.2877C85.465 24.5264 87.3137 24.7471 89.1678 24.9496L89.0634 25.9049C87.2029 25.7017 85.348 25.4802 83.4986 25.2407L83.622 24.2877ZM94.7252 25.5007C96.5763 25.6657 98.4325 25.8126 100.294 25.9412L100.228 26.8999C98.3599 26.7708 96.4973 26.6234 94.6399 26.4579L94.7252 25.5007ZM105.868 26.2711C107.724 26.3625 109.585 26.4357 111.45 26.4907L111.422 27.4512C109.55 27.3961 107.683 27.3226 105.821 27.2309L105.868 26.2711ZM117.033 26.6003C117.964 26.6094 118.895 26.614 119.827 26.614V27.575C118.892 27.575 117.957 27.5704 117.024 27.5612L117.033 26.6003ZM119.827 26.614C120.76 26.614 121.691 26.6094 122.621 26.6003L122.631 27.5612C121.697 27.5704 120.763 27.575 119.827 27.575V26.614ZM128.205 26.4907C130.07 26.4357 131.93 26.3625 133.786 26.2711L133.834 27.2309C131.971 27.3226 130.104 27.3961 128.233 27.4512L128.205 26.4907ZM139.361 25.9412C141.222 25.8126 143.078 25.6657 144.929 25.5007L145.015 26.4579C143.157 26.6234 141.295 26.7708 139.427 26.8999L139.361 25.9412ZM150.487 24.9496C152.341 24.7471 154.189 24.5264 156.032 24.2877L156.156 25.2407C154.307 25.4802 152.452 25.7017 150.591 25.9049L150.487 24.9496ZM161.564 23.515C163.408 23.2386 165.246 22.9441 167.078 22.6318L167.24 23.579C165.401 23.8924 163.557 24.1879 161.706 24.4653L161.564 23.515ZM172.575 21.6378C174.406 21.2876 176.23 20.9196 178.048 20.5339L178.248 21.4739C176.423 21.861 174.592 22.2303 172.755 22.5816L172.575 21.6378ZM183.501 19.3196C185.316 18.8961 187.124 18.4549 188.926 17.9962L189.163 18.9274C187.355 19.3877 185.541 19.8305 183.719 20.2554L183.501 19.3196ZM194.325 16.5634C196.121 16.0671 197.91 15.5534 199.692 15.0223L199.967 15.9432C198.179 16.4761 196.383 16.9917 194.58 17.4896L194.325 16.5634ZM205.028 13.373C206.803 12.8048 208.571 12.2193 210.33 11.6167L210.641 12.5258C208.876 13.1305 207.103 13.718 205.321 14.2882L205.028 13.373ZM215.595 9.75372C217.345 9.11445 219.088 8.45817 220.821 7.78506L221.169 8.68087C219.429 9.35631 217.681 10.0149 215.925 10.6563L215.595 9.75372ZM226.007 5.71145C227.73 5.00226 229.445 4.27633 231.15 3.53387L231.534 4.41495C229.822 5.15998 228.102 5.88843 226.373 6.60007L226.007 5.71145ZM0.464939 0.943804C0.224942 0.830595 0.12216 0.544266 0.235369 0.304268C0.348577 0.06427 0.634907 -0.0385113 0.874904 0.0746975L0.464939 0.943804ZM238.985 0.509251L235.8 5.05202L233.458 0.0224018L238.985 0.509251ZM0.874904 0.0746975C1.71637 0.471624 2.56014 0.86447 3.40618 1.25321L3.00498 2.12639C2.156 1.73631 1.30932 1.3421 0.464939 0.943804L0.874904 0.0746975ZM8.50429 3.53386C10.2098 4.27633 11.9242 5.00226 13.6472 5.71144L13.2815 6.60006C11.5525 5.88842 9.83215 5.15998 8.12073 4.41494L8.50429 3.53386ZM18.833 7.78506C20.5668 8.45817 22.309 9.11445 24.0594 9.75371L23.7297 10.6563C21.9733 10.0149 20.2251 9.35631 18.4853 8.68087L18.833 7.78506ZM29.3247 11.6167C31.0839 12.2193 32.8511 12.8048 34.626 13.373L34.333 14.2882C32.5519 13.718 30.7786 13.1305 29.0133 12.5258L29.3247 11.6167ZM39.9622 15.0223C41.7441 15.5534 43.5334 16.0671 45.3299 16.5634L45.0741 17.4896C43.2713 16.9917 41.4758 16.4761 39.6878 15.9432L39.9622 15.0223ZM50.7286 17.9962C52.5301 18.4549 54.3385 18.8961 56.1538 19.3196L55.9355 20.2554C54.1139 19.8305 52.2992 19.3877 50.4915 18.9274L50.7286 17.9962ZM61.6061 20.5339C63.4242 20.9196 65.2489 21.2876 67.0799 21.6378L66.8994 22.5816C65.0621 22.2303 63.2311 21.861 61.4066 21.4739L61.6061 20.5339ZM72.5764 22.6318C74.4084 22.9441 76.2465 23.2386 78.0905 23.515L77.9481 24.4653C76.0977 24.1879 74.2532 23.8924 72.4149 23.579L72.5764 22.6318ZM83.622 24.2877C85.465 24.5264 87.3137 24.7471 89.1678 24.9496L89.0634 25.9049C87.2029 25.7017 85.348 25.4802 83.4986 25.2407L83.622 24.2877ZM94.7252 25.5007C96.5763 25.6657 98.4325 25.8126 100.294 25.9412L100.228 26.8999C98.3599 26.7708 96.4973 26.6234 94.6399 26.4579L94.7252 25.5007ZM105.868 26.2711C107.724 26.3625 109.585 26.4357 111.45 26.4907L111.422 27.4512C109.55 27.3961 107.683 27.3226 105.821 27.2309L105.868 26.2711ZM117.033 26.6003C117.964 26.6094 118.895 26.614 119.827 26.614V27.575C118.892 27.575 117.957 27.5704 117.024 27.5612L117.033 26.6003ZM119.827 26.614C120.76 26.614 121.691 26.6094 122.621 26.6003L122.631 27.5612C121.697 27.5704 120.763 27.575 119.827 27.575V26.614ZM128.205 26.4907C130.07 26.4357 131.93 26.3625 133.786 26.2711L133.834 27.2309C131.971 27.3226 130.104 27.3961 128.233 27.4512L128.205 26.4907ZM139.361 25.9412C141.222 25.8126 143.078 25.6657 144.929 25.5007L145.015 26.4579C143.157 26.6234 141.295 26.7708 139.427 26.8999L139.361 25.9412ZM150.487 24.9496C152.341 24.7471 154.189 24.5264 156.032 24.2877L156.156 25.2407C154.307 25.4802 152.452 25.7017 150.591 25.9049L150.487 24.9496ZM161.564 23.515C163.408 23.2386 165.246 22.9441 167.078 22.6318L167.24 23.579C165.401 23.8924 163.557 24.1879 161.706 24.4653L161.564 23.515ZM172.575 21.6378C174.406 21.2876 176.23 20.9196 178.048 20.5339L178.248 21.4739C176.423 21.861 174.592 22.2303 172.755 22.5816L172.575 21.6378ZM183.501 19.3196C185.316 18.8961 187.124 18.4549 188.926 17.9962L189.163 18.9274C187.355 19.3877 185.541 19.8305 183.719 20.2554L183.501 19.3196ZM194.325 16.5634C196.121 16.0671 197.91 15.5534 199.692 15.0223L199.967 15.9432C198.179 16.4761 196.383 16.9917 194.58 17.4896L194.325 16.5634ZM205.028 13.373C206.803 12.8048 208.571 12.2193 210.33 11.6167L210.641 12.5258C208.876 13.1305 207.103 13.718 205.321 14.2882L205.028 13.373ZM215.595 9.75372C217.345 9.11445 219.088 8.45817 220.821 7.78506L221.169 8.68087C219.429 9.35631 217.681 10.0149 215.925 10.6563L215.595 9.75372ZM226.007 5.71145C227.73 5.00226 229.445 4.27633 231.15 3.53387L231.534 4.41495C229.822 5.15998 228.102 5.88843 226.373 6.60007L226.007 5.71145Z" fill="#1B1D21"/>
</svg>
