<?xml version="1.0" encoding="UTF-8"?><svg id="Layer_1" xmlns="http://www.w3.org/2000/svg" viewBox="0 0 550 250"><defs><style>.cls-1{fill:#fefefe;}.cls-1,.cls-2,.cls-3{stroke-width:0px;}.cls-2{fill:#272362;}.cls-3{fill:#292564;}</style></defs><path class="cls-2" d="M432.11,131.5c-37.64,0-75.27,0-112.91,0-.38,0-.76,0-1.13,0-1.71-.03-1.39.19-1.45,1.41-1.39,28.64-22.05,53.34-50.14,59.92-33.37,7.82-67.01-11.23-77.31-43.79-1.58-5.01-2.55-10.12-2.88-15.37-.16-2.62.15-2.16-2.23-2.16-59.56-.01-119.12,0-178.68-.01-2.43,0-2.08.35-2.11-2.17-.01-1.19.01-2.37,0-3.56,0-.56.23-.77.77-.75.48.02.97,0,1.46,0,59.51,0,119.01,0,178.52,0,2.23,0,2.21,0,2.43-2.13,2.97-28.99,24.21-51.08,50.13-57.03,34.02-7.81,67.84,11.99,77.59,45.43,1.1,3.79,1.87,7.64,2.21,11.57,0,.11.01.22.03.32.34,2.15-.09,1.84,2.11,1.84,75.6,0,151.2,0,226.8,0q2.29,0,2.29,2.32c0,1.08-.03,2.16,0,3.24.03.72-.28.97-.96.92-.43-.03-.86,0-1.3,0-37.75,0-75.49,0-113.24,0ZM276.17,151.13c7.33.08,12.58-2.17,16.29-7.32,5.73-7.97,6.49-16.62,2.75-25.6-1.93-4.62-5.41-7.88-10.17-9.63-4.09-1.51-8.31-1.77-12.59-1.07-4.99.82-9.21,3.25-13.05,6.43-4.06,3.35-7.43,7.36-10.75,11.4-3.39,4.12-6.66,8.36-10.54,12.05-1.93,1.83-4.03,3.45-6.52,4.43-4.27,1.66-8.26,1.17-11.82-1.84-2.52-2.13-4.03-4.88-4.86-8.04-.62-2.38-.42-4.7.53-6.96,1.19-2.81,3.03-5.09,5.57-6.77,1.98-1.31,4.16-2.03,6.54-2.07,4.99-.07,8.95,2.04,12.07,5.84.48.58.91,1.22,1.45,1.73,1.67,1.57,4.16,1.59,5.9.1,1.78-1.53,2.1-3.88.76-5.98-1.26-1.97-2.86-3.65-4.67-5.13-5.61-4.6-11.98-6.49-19.16-5.14-7.36,1.38-12.53,5.73-15.98,12.24-1.83,3.46-2.74,7.18-2.3,11.08.66,5.88,3.1,10.97,7.42,15.07,4.84,4.58,10.59,6.47,17.23,5.5,4.64-.68,8.55-2.89,12.08-5.83,3.75-3.12,6.88-6.83,9.98-10.58,3.81-4.61,7.42-9.41,11.9-13.43,3.81-3.41,8.05-5.83,13.39-5.47,5.55.37,8.62,2.7,10.06,7.37,1.37,4.42.96,8.73-1.07,12.89-2.29,4.67-5.94,6.31-11.04,5.72-4.69-.54-8.43-2.8-11.49-6.31-.67-.77-1.29-1.6-2.11-2.23-1.77-1.39-4.15-1.29-5.78.23-1.7,1.58-1.96,4-.61,5.86.47.65,1.02,1.26,1.55,1.87,5.32,6.05,11.86,9.57,19.03,9.6Z"/><path class="cls-3" d="M102.84,72.9c-.56-.36-.55-.89-.69-1.33-1.16-3.66-3.58-4.21-6.88-3.36-1.2.31-1.51.86-1.51,2.32,0,4.64,0,9.28,0,13.92,0,.59.08,1.18.16,1.77.38,2.74,1.79,4.92,3.71,6.84.41.41.85.59,1.43.59,6.26-.02,12.53,0,18.79-.02,1.87,0,2.46-.58,2.46-2.43.02-6.42,0-12.84,0-19.25,0-.64-.06-1.29-.26-1.91-.27-.85-.65-1.55-1.56-1.92-.78-.32-.82-.86-.12-1.23,3.7-1.96,6.24-5.08,8.6-8.4.09-.13.18-.25.36-.5,2,2.87,4.87,4.34,7.81,5.7,2.78,1.29,4.31,3.5,4.88,6.42.18.89.25,1.82.26,2.73.02,5.07.02,10.14,0,15.21,0,1.18-.21,2.34.26,3.5.66,1.64,1.22,2.09,3.02,2.09,1.46,0,2.92.05,4.37-.09,2.37-.22,3.4-1.42,3.45-3.85.03-1.51-.01-3.02-.01-4.53,0-13.16,0-26.32,0-39.48,0-1.08.06-2.16-.21-3.22-.12-.48-.25-.94-.54-1.34-.6-.82-1.27-.93-2.07-.32-.43.32-.8.72-1.19,1.07-.74-.48-.48-.94-.1-1.49,1.36-1.95,2.7-3.9,4.01-5.88.86-1.3,1.66-2.63,2.46-3.9.62,0,.85.41,1.14.7,2.9,2.93,4.4,6.38,4.38,10.59-.08,15.86-.06,31.71-.08,47.57,0,.81,0,1.63-.13,2.42-.52,3.06-2.34,4.89-5.43,5.04-3.77.18-7.56.08-11.33.07-1.07,0-1.81-.65-2.3-1.55-.33-.61-.56-1.26-.91-2.07-1.42,1.41-3.01,2.46-4.64,3.46-.72.44-1.18.39-1.78-.22-1.51-1.53-3.09-2.99-4.65-4.49-.42.39-.45.83-.6,1.22-1,2.58-2.53,3.67-5.28,3.67-8.21.01-16.41,0-24.62,0-7.13,0-14.25-.02-21.38,0-1.52,0-3.01.07-4.33-1.61,0,.99,0,1.56,0,2.13-.02,2.53-.09,5.07-.06,7.6.02,1.51-.56,2.71-1.62,3.74-2.17,2.11-4.81,3.23-7.77,3.64-.8.11-1.61.16-2.42.22-.55.04-.77-.3-.81-.79-.04-.49.36-.44.65-.5.37-.08.75-.13,1.11-.24,1.44-.48,2.37-1.45,2.74-2.93.29-1.16.32-2.35.32-3.54,0-11.16,0-22.33,0-33.49,0-.81-.04-1.62-.25-2.41-.37-1.42-1.27-1.81-2.46-1.03-.61.4-1.16.89-1.8,1.39-.27-.63-.21-1.1.27-1.49,3.09-2.6,6.17-5.2,9.36-7.88,1.6,2.17,2.64,4.43,2.67,7.05.08,5.61.13,11.22.19,16.83.02,1.46.01,2.91.03,4.37.02,1.42.25,2.79.84,4.09.43.96,1.14,1.53,2.26,1.53,4.7-.02,9.39-.03,14.09-.05.08,0,.16-.1.24-.16.03-.18-.07-.28-.21-.37-2.53-1.62-3.41-4.05-3.41-6.92,0-3.45,0-6.9,0-10.36,0-1.19.04-2.38-.22-3.55-.38-1.74-1.25-2-2.61-.85-.36.31-.69.65-1.02.96-.78-.46-.75-.97-.32-1.63,1.4-2.12,2.84-4.2,4.54-6.09,2.41-2.66,5.39-4.04,9.02-3.96,2.37.05,4.75,0,7.13,0,1.47,0,2.9-.23,4.31-.62,1.78-.49,3.45-1.18,4.52-2.84.83,1.38.79,2.23-.11,3.43-.77,1.02-1.78,1.79-2.93,2.23-3.95,1.53-5.18,4.58-5,8.5.02.45.22.95-.2,1.5ZM133.24,66.12c-1-.02-1.78.14-2.54.42-1.61.59-2.56,1.73-2.83,3.41-.08.53-.08,1.07-.08,1.61,0,5.49.07,10.98-.05,16.46-.04,1.53.56,2.4,1.71,3.13,1.7,1.07,3.57.17,3.75-1.84.06-.69.04-1.4.04-2.1,0-6.56,0-13.13,0-19.69,0-.42,0-.85,0-1.42Z"/><path class="cls-3" d="M414.38,96.58c-.2.02-.28,0-.3.03-1.61,2.52-4.08,3.18-6.85,3.18-10.64,0-21.27,0-31.91,0-.27,0-.54.02-.81-.02-.14-.02-.32-.12-.38-.23-.12-.24.08-.4.28-.48.45-.17.92-.3,1.37-.49,1.92-.84,3.1-2.27,3.44-4.36.13-.8.19-1.6.19-2.41,0-15.64,0-31.28,0-46.93,0-1.13-.04-2.26-.19-3.39-.07-.49-.18-.96-.41-1.39-.62-1.18-1.42-1.33-2.45-.45-.32.27-.62.57-.92.85-.5-.39-.59-.76-.22-1.27,2.32-3.17,4.45-6.48,6.58-10,2.67,2.35,4.52,5.01,5.15,8.42.2,1.06.24,2.14.24,3.22,0,17.64,0,35.28,0,52.91,0,.32,0,.65,0,.97.02,1.38.02,1.39,1.42,1.4,4.05.03,8.1.05,12.15.07.49,0,.98.02,1.46-.04,3.06-.35,4.4-1.82,4.4-4.91,0-6.04-.04-12.08-.08-18.12,0-.81-.07-1.62-.15-2.42-.06-.65-.28-1.27-.67-1.8-.64-.87-1.35-.96-2.21-.31-.21.16-.39.38-.6.54-.27.19-.42.78-.88.42-.37-.29-.39-.7-.07-1.13,2.58-3.52,4.92-7.2,7.29-11.07,3,2.72,5.08,5.81,5.6,9.8.12.96.15,1.94.15,2.91.01,6.47,0,12.95,0,19.42,0,1.57.16,3.12.73,4.6.64,1.66,1.24,2.1,3.02,2.11,3.29.02,6.59.01,9.88,0,1.35,0,1.38-.02,1.38-1.31,0-8.85,0-17.69,0-26.54,0-.92-.09-1.84-.35-2.72-.48-1.62-1.72-2.51-3.2-.93-.22.24-.45.47-.74.78-.47-.4-.78-.75-.34-1.33,2.61-3.49,4.95-7.17,7.27-10.98,3.31,2.78,6.03,5.71,5.93,10.38,1.43-2.54,3.63-3.71,6.26-4.29.64-.14,1.28-.17,1.93-.17,4.64,0,9.29.05,13.93,0,4.47-.04,7.75,1.92,10.01,5.71.66,1.12,1.16,2.31,1.64,3.51.28.69.22,1.25-.32,1.83-.57-.25-.67-.91-1.06-1.31-.55-.56-.89-.51-1.14.25-.15.45-.23.95-.25,1.42-.07,1.83-.13,3.66-.14,5.5-.02,4.85,0,9.71-.01,14.56,0,1.24-.05,2.47-.36,3.69-.77,3.07-2.79,4.76-5.85,5.29-1.06.19-2.14.23-3.23.23-13.44,0-26.89-.04-40.33.04-2.6.02-4.57-.52-5.24-3.26ZM438.44,82.48c0,4.26.02,8.52-.02,12.78,0,.83.22,1.11,1.08,1.1,5.02-.04,10.04.02,15.06-.04,4.05-.04,6.27-2.23,6.54-6.27.02-.27.02-.54.02-.81,0-5.82.03-11.65,0-17.47-.02-4.15-2.06-6.69-6.15-7.5-3.47-.69-6.97-.56-10.46-.06-1.02.15-2,.46-2.9.95-2.05,1.12-3.22,2.73-3.18,5.19.07,4.04.02,8.09.02,12.13Z"/><path class="cls-3" d="M509.73,69.93c-.48-.59-.78-.89-.43-1.38,2.62-3.56,5.01-7.27,7.36-11.21,3.46,3.15,5.71,6.74,5.75,11.41.04,4.26,0,8.52-.02,12.78,0,3.45-.02,6.9-.03,10.35,0,.54,0,1.08-.04,1.62-.33,3.66-2.25,5.67-5.9,6.14-.75.09-1.51.14-2.26.14-11.07,0-22.13,0-33.2,0-.52,0-1.06.1-1.54-.15-.05-.65.42-.62.74-.72,2.97-.89,4.38-2.96,4.52-5.98.02-.54.02-1.08.02-1.62,0-15.32,0-30.63,0-45.95,0-1.29,0-2.59-.19-3.87-.07-.49-.18-.96-.4-1.39-.63-1.2-1.41-1.36-2.45-.48-.33.27-.63.58-.93.86-.48-.38-.61-.74-.23-1.26,2.32-3.17,4.45-6.48,6.58-10.01,2.67,2.33,4.51,4.99,5.15,8.4.2,1.06.25,2.14.24,3.22,0,17.8,0,35.59,0,53.39,0,2.18-.28,1.9,1.86,1.92,4.7.03,9.39.04,14.09.08.87,0,1.73-.06,2.56-.31,1.95-.58,2.95-1.86,2.99-3.91.03-1.56-.01-3.13-.01-4.69,0-4.91,0-9.81-.01-14.72,0-.97-.05-1.94-.4-2.87-.64-1.69-1.71-1.95-3.05-.73-.27.25-.48.57-.79.95Z"/><path class="cls-3" d="M8.55,153.88c5.7-8.26,20.21-7.28,24.08.4.99-1.07,1.79-2.26,2.95-3.14,2.53-1.94,5.41-2.84,8.54-3,2.54-.13,5.05.03,7.47.99,3.66,1.46,5.97,4.14,7.14,7.83.64,2.01.88,4.1.89,6.19.04,7.44.02,14.89.02,22.33,0,.27-.01.54,0,.81.02.48-.22.67-.68.67-1.4,0-2.81-.01-4.21,0-.52,0-.64-.27-.62-.71.02-.38,0-.76,0-1.13,0-7.39,0-14.78,0-22.17,0-1.57-.23-3.12-.84-4.56-1.44-3.44-4.19-5.08-7.79-5.39-1.61-.14-3.21,0-4.79.49-3.58,1.09-5.53,3.57-6.25,7.12-.24,1.16-.32,2.33-.32,3.52.02,7.01.01,14.02.01,21.04,0,.38-.02.76,0,1.13.02.48-.19.67-.66.67-1.4-.01-2.81,0-4.21,0-.49,0-.66-.26-.64-.71.01-.38,0-.76,0-1.13,0-7.55.01-15.1,0-22.66,0-2.79-.74-5.3-2.87-7.28-1.28-1.19-2.81-1.77-4.49-2.04-2.8-.45-5.5-.15-7.96,1.31-3.19,1.89-4.38,4.97-4.42,8.47-.08,7.28-.02,14.56-.02,21.85,0,.32,0,.65,0,.97,0,1.23.1,1.24-1.24,1.22-1.13,0-2.27-.02-3.4,0-.58,0-.95-.13-.87-.81.03-.32,0-.65,0-.97,0-11.65,0-23.3,0-34.95,0-2.03-.22-1.77,1.83-1.79.81,0,1.62.03,2.43-.01.7-.04.96.21.94.91-.04,1.4-.01,2.8-.01,4.53Z"/><path class="cls-3" d="M327.59,154.47c5.33-7.65,19.26-7.54,23.53.42.63-.37.84-1.09,1.31-1.6,2.23-2.37,4.96-3.69,8.15-4.23,2.37-.4,4.7-.33,7.04.18,5.58,1.21,8.67,5.15,9.6,10.46.23,1.33.27,2.67.27,4.02-.02,7.28,0,14.56,0,21.84,0,1.43.14,1.42-1.39,1.42-1.08,0-2.16-.01-3.24,0-.53,0-.81-.17-.78-.74.02-.38,0-.75,0-1.13,0-7.44.02-14.88,0-22.33-.01-3.34-1.22-6.08-4.18-7.88-3.42-2.09-10.64-1.9-13.57,2.58-1.09,1.67-1.54,3.53-1.68,5.49-.21,3.01-.09,6.03-.11,9.05-.02,4.48,0,8.95,0,13.43,0,1.63.19,1.54-1.59,1.54-.97,0-1.94-.01-2.92,0-.46,0-.7-.16-.68-.65.02-.38,0-.75,0-1.13,0-6.47.02-12.94-.01-19.41,0-1.5-.09-3.01-.27-4.5-.5-4.07-3.09-6.89-7.06-7.49-2.23-.34-4.41-.22-6.5.62-3.17,1.28-4.93,3.72-5.47,7.04-.2,1.21-.35,2.44-.35,3.68.03,6.69.01,13.37.01,20.06,0,.38-.02.76,0,1.13.02.49-.23.65-.69.65-1.3-.01-2.59-.02-3.89,0-.58.01-.76-.25-.73-.78.02-.32,0-.65,0-.97,0-11.38,0-22.76,0-34.14,0-.38.01-.76,0-1.13-.01-.48.21-.67.68-.67,1.24.01,2.48.02,3.72,0,.67-.01.8.35.79.92-.02,1.29,0,2.57,0,4.25Z"/><path class="cls-3" d="M335.25,58.61c-2.72,1.85-3.24,4.67-3.69,7.52-.07.42-.07.86-.07,1.29,0,8.2-.03,16.39,0,24.59,0,2.66,1.46,4.16,4.1,4.18,5.72.06,11.44.02,17.17.01.87,0,1.72-.19,2.51-.55,1.33-.61,2.14-1.61,2.27-3.1.04-.43.06-.86.06-1.29-.02-6.15-.04-12.29-.07-18.44,0-1.08.02-2.16-.41-3.19-.67-1.59-1.65-1.8-2.98-.69-.32.26-.5,1.06-1.09.64-.72-.51-.13-1.03.2-1.49,2.49-3.39,4.73-6.94,7-10.67,2.56,2.21,4.39,4.79,5.31,7.98.41,1.41.49,2.86.49,4.32-.03,7.39-.06,14.78-.1,22.16,0,1.08-.02,2.15-.3,3.21-.66,2.52-2.31,3.95-4.81,4.44-.95.18-1.93.25-2.9.25-8.91.01-17.81,0-26.72,0-1.08,0-2.16-.09-3.2-.4-2.73-.82-4.28-3.03-4.31-6.31-.04-3.83,0-7.66-.02-11.49,0-1.45.07-2.91-.1-4.36-.31-2.5-1.66-4.14-4-5-.3-.11-.63-.17-.92-.3-.12-.06-.26-.22-.28-.35-.04-.26.16-.37.39-.4.8-.09,1.61-.12,2.4-.33,2.4-.66,4.29-1.99,5.52-4.18.95-1.69,1.88-3.39,2.81-5.1.49-.9,1.03-1.77,1.79-2.48,1.24-1.17,2.17-1.3,3.99-.48Z"/><path class="cls-2" d="M22.72,58.58c-2.9,2.29-3.4,5.43-3.48,8.64-.12,4.74-.04,9.49-.04,14.23,0,2.64-.02,5.28,0,7.92.03,2.89,1.39,4.23,4.31,4.24,5.02.02,10.04,0,15.06.01.66,0,1.29-.08,1.92-.23,2.03-.5,3.05-1.7,3.06-3.79.01-6.2-.03-12.4-.04-18.6,0-.76-.11-1.51-.42-2.21-.6-1.35-1.52-1.54-2.65-.6-.33.27-.55.67-.98.82-.28-.33-.61-.63-.25-1.12,2.43-3.28,4.62-6.73,6.85-10.38,2.82,2.58,4.76,5.43,5.24,9.14.24,1.83.13,3.66.12,5.49-.03,5.77-.06,11.54-.09,17.3,0,.59,0,1.19-.04,1.78-.23,3.33-2.19,5.35-5.5,5.7-.59.06-1.19.06-1.78.06-8.31,0-16.62,0-24.93,0-.27,0-.54,0-.81,0-3.96-.11-6.21-2.33-6.26-6.29-.05-4.15-.01-8.3-.01-12.45,0-.49,0-.97,0-1.46-.11-2.77-1.36-4.71-4.05-5.61-.29-.1-.67-.05-.84-.56.24-.47.8-.33,1.21-.38,3.06-.39,5.33-1.88,6.77-4.64.75-1.43,1.54-2.84,2.32-4.26.47-.85.97-1.68,1.7-2.35,1.16-1.07,1.98-1.18,3.64-.42Z"/><path class="cls-2" d="M70.65,174.34c0-3.5-.06-7.01.01-10.51.09-4.27,1.29-8.15,4.39-11.28,2.79-2.82,6.27-4.12,10.14-4.38,2.35-.16,4.72-.09,7.05.52,5.88,1.55,9.44,5.32,10.83,11.17.45,1.88.64,3.8.63,5.74-.02,6.68,0,13.36-.01,20.05,0,1.31-.02,1.32-1.31,1.33-1.08,0-2.16-.05-3.24.02-.83.05-.98-.3-.97-1.03.04-2.8.02-5.6.01-8.41,0-1.23-.02-1.25-1.23-1.25-6.58,0-13.16,0-19.74,0-1.26,0-1.27.02-1.27,1.37,0,2.75-.03,5.5.02,8.24.02.86-.26,1.13-1.1,1.08-1.08-.06-2.16-.06-3.23,0-.8.05-1-.25-.99-1.01.03-3.88.02-7.76.02-11.64ZM87,171.64c3.29,0,6.58,0,9.88,0,1.3,0,1.31-.02,1.32-1.35,0-1.78-.03-3.56.01-5.34.03-1.63-.2-3.22-.64-4.78-.89-3.16-2.86-5.37-5.99-6.49-1.64-.59-3.35-.75-5.09-.69-5.63.18-9.52,3.28-10.33,9.09-.39,2.79-.14,5.59-.2,8.39-.03,1.13.02,1.16,1.17,1.17,3.29.01,6.58,0,9.88,0Z"/><path class="cls-3" d="M487.76,148.75c6.63.25,12.12,2.31,16.18,7.36,2.35,2.93,3.59,6.29,3.95,10.05.5,5.35-.77,10.15-4.2,14.28-3.51,4.24-8.15,6.36-13.6,6.87-3.71.35-7.3-.09-10.71-1.61-7.11-3.16-10.9-8.69-11.47-16.4-.35-4.74.88-9.1,3.79-12.87,3.39-4.41,7.99-6.79,13.48-7.44.95-.11,1.91-.36,2.58-.25ZM502.55,168.13c.26-7.69-5.87-14.49-14.44-14.51-7.8-.01-14.84,5.27-14.87,14.5-.02,8.85,6.65,14.47,14.68,14.51,8.54.04,14.79-6.48,14.63-14.51Z"/><path class="cls-3" d="M454.02,174.47c2.89,4.09,5.76,8.17,8.82,12.5-1.96,0-3.66-.02-5.35,0-.61,0-.81-.43-1.09-.82-2.07-2.95-4.15-5.9-6.22-8.85-.19-.26-.38-.52-.54-.81-.46-.82-1.1-1.05-2.07-1.02-3.07.09-6.15.03-9.23.04-1.21,0-1.23.02-1.23,1.24,0,3.02,0,6.04,0,9.06,0,1.12-.02,1.13-1.16,1.15-1.13.01-2.27-.02-3.4.01-.62.02-.9-.21-.84-.84.03-.32,0-.65,0-.97,0-11.37,0-22.75,0-34.12,0-1.78-.36-1.75,1.71-1.75,4.69,0,9.39-.04,14.08.01,3.22.03,6.3.7,9.08,2.43,2.89,1.81,4.76,4.36,5.34,7.71.71,4.07.23,7.94-2.52,11.25-1.16,1.39-2.64,2.36-4.26,3.13-.34.16-.74.17-1.11.64ZM443.31,153.96c-1.88,0-3.5.04-5.12-.02-.85-.03-1.1.25-1.1,1.09.03,4.96.03,9.91,0,14.87,0,.85.26,1.12,1.11,1.1,2.8-.05,5.61.05,8.41-.04,1.6-.06,3.18-.3,4.75-.78,6.18-1.89,6.57-9.12,4.02-12.7-1.36-1.91-3.35-2.76-5.58-3.22-2.24-.46-4.51-.23-6.5-.3Z"/><path class="cls-3" d="M420.69,174.7c0,3.56,0,7.12,0,10.68,0,1.82.2,1.58-1.67,1.6-.76,0-1.51,0-2.27,0-1.49,0-1.35.08-1.36-1.43,0-2.59,0-5.18,0-7.77,0-1.13-.03-1.16-1.16-1.16-6.48,0-12.96,0-19.43,0-1.08,0-1.09.02-1.1,1.21-.01,2.64,0,5.28,0,7.93,0,1.2-.02,1.21-1.26,1.22-1.13.01-2.27-.01-3.4,0-.56,0-.78-.23-.74-.77.02-.32,0-.65,0-.97,0-6.69-.02-13.37.01-20.06.01-2.37.36-4.71,1.22-6.95,1.87-4.85,5.42-7.74,10.45-8.92,3.38-.79,6.75-.7,10.06.23,5.73,1.63,9.08,5.52,10.3,11.29.28,1.32.39,2.65.38,4-.03,3.29-.01,6.58-.01,9.87ZM404.51,171.96c3.24,0,6.47.01,9.71,0,1.14,0,1.15-.03,1.16-1.18.02-1.67-.02-3.34.01-5.01.04-1.73-.12-3.44-.61-5.1-.57-1.95-1.57-3.64-3.22-4.9-2.26-1.72-4.86-2.2-7.61-2.12-6.03.18-9.82,3.68-10.24,9.81-.17,2.47,0,4.96-.05,7.44-.02.87.3,1.09,1.13,1.08,3.24-.04,6.47-.02,9.71-.02Z"/><path class="cls-3" d="M182.25,108.8c-1.39.83-2.45.47-3.44-.35-.76-.63-1.29-1.45-1.76-2.3-.81-1.46-1.62-2.92-2.39-4.41-1.47-2.82-3.83-4.29-6.93-4.7-.36-.05-.76.06-1.07-.22-.11-.61.43-.53.73-.65,2.98-1.15,4.11-2.69,4.11-5.85.01-15.26,0-30.53,0-45.79,0-.91.01-1.83-.33-2.71-.57-1.44-1.38-1.68-2.56-.73-.29.23-.49.86-.98.45-.44-.37-.06-.78.2-1.13,2.02-2.8,3.9-5.69,5.69-8.65.08-.13.23-.21.41-.36,3,2.68,4.85,5.88,4.87,9.99,0,1.46,0,2.91,0,4.37,0,17.58,0,35.17,0,52.75,0,1.78.02,3.56.46,5.3.48,1.91,1.14,3.71,3,4.98Z"/><path class="cls-3" d="M180.28,167.74c0,5.88,0,11.75,0,17.63,0,1.83.2,1.59-1.66,1.61-.97,0-1.94-.03-2.91.01-.68.03-.97-.19-.95-.91.04-1.51.01-3.02.01-4.53,0-3.45,0-6.9,0-10.35,0-1.37.12-1.37-1.27-1.37-6.48,0-12.95,0-19.43,0-1.31,0-1.32.02-1.33,1.32,0,4.69,0,9.38,0,14.07,0,2.04.27,1.73-1.83,1.76-.97.01-1.94-.01-2.91,0-.54,0-.8-.19-.76-.75.02-.32,0-.65,0-.97,0-11.7,0-23.4,0-35.1,0-.27.02-.54,0-.81-.08-.74.29-.92.96-.9,1.13.03,2.27,0,3.4.01,1.13.01,1.15.02,1.16,1.15.01,4.26,0,8.52.01,12.78,0,.85-.37,1.92.17,2.5.62.66,1.74.25,2.64.26,5.94.03,11.87.02,17.81.01,1.38,0,1.39-.02,1.39-1.43,0-4.64,0-9.27,0-13.91,0-1.34.01-1.35,1.29-1.36,1.08-.01,2.16.04,3.24-.02.8-.05,1.01.26,1,1.02-.03,3.45-.01,6.9-.01,10.35,0,2.64,0,5.28,0,7.93Z"/><path class="cls-3" d="M530.16,69.88c-.36-.76-.17-1.24.35-1.67,3.14-2.64,6.28-5.27,9.4-7.94.55-.47.81-.26,1.13.23,1.33,2.07,2.26,4.29,2.36,6.79.03.7.06,1.4.06,2.1,0,12.62-.09,25.24.02,37.86.03,3.08-1.23,5.1-3.65,6.72-2.75,1.84-5.82,2.46-9.04,2.64-.6.03-.91-.23-.94-.83-.04-.69.51-.55.9-.63,2.51-.46,3.65-1.64,4.07-4.12.17-1.02.21-2.04.21-3.06,0-11.97,0-23.95,0-35.92,0-.87-.07-1.72-.27-2.57-.36-1.54-1.4-1.97-2.71-1.08-.62.42-1.18.93-1.87,1.48Z"/><path class="cls-3" d="M547.44,181.69c-2.83,3.04-6.44,4.8-10.6,5.47-3.61.58-7.18.32-10.66-.84-7.98-2.66-12.94-9.88-12.96-17.83,0-3.87.8-7.48,2.9-10.74,3.15-4.9,7.73-7.7,13.44-8.63,4.81-.78,9.43-.2,13.77,2.17,1.39.76,2.58,1.74,3.69,2.85.46.45.42.75-.03,1.17-.71.66-1.43,1.32-2.05,2.07-.57.68-1.05.59-1.59.05-1.25-1.22-2.69-2.16-4.32-2.78-6.45-2.47-14.25-.39-17.97,5.25-3.73,5.66-3.25,13.4,1.49,18.31,3.38,3.5,7.67,4.78,12.51,4.32,3.29-.31,6.12-1.62,8.47-3.92.51-.5.8-.33,1.18.09.86.96,1.74,1.91,2.73,3Z"/><path class="cls-3" d="M122.15,153.07c-4.24.38-8.09,1.67-11.81,3.65-.86-1.25-1.24-2.72-2-4.11.46-.46,1.02-.74,1.58-1.03,4.49-2.3,9.25-3.38,14.3-3.47,5.54-.1,10.8.93,15.76,3.44,1.74.88,1.76.9.9,2.69-.39.81-.6,1.72-1.26,2.48-3.65-1.99-7.5-3.25-11.7-3.66-.22.55-.11,1.14-.11,1.7,0,10.13,0,20.27,0,30.4,0,.38-.02.76,0,1.13.02.47-.17.68-.66.68-1.4-.01-2.81,0-4.21,0-.48,0-.67-.24-.65-.7.01-.38,0-.75,0-1.13,0-10.08,0-20.16,0-30.24,0-.59.1-1.18-.12-1.83Z"/><path class="cls-3" d="M338.56,42.49c2.86,0,5.05,2.25,5.03,5.18-.02,2.7-2.21,4.84-4.99,4.86-2.81.02-5.04-2.18-5.07-5-.02-2.75,2.26-5.03,5.03-5.04Z"/><path class="cls-3" d="M351.36,52.65c-2.85-.01-4.99-2.18-4.96-5.04.03-2.79,2.29-5.03,5.06-5,2.73.03,4.98,2.32,5,5.1.02,2.76-2.23,4.94-5.1,4.93Z"/><path class="cls-3" d="M395.68,108.97c.03-2.87,2.17-5.01,5.01-4.99,2.81.02,5.06,2.35,5.02,5.21-.03,2.65-2.31,4.82-5.05,4.82-2.77,0-5-2.26-4.98-5.05Z"/><path class="cls-3" d="M453.81,46.84c0,2.68-2.21,4.8-5.01,4.82-2.82.02-5.09-2.21-5.06-4.97.03-2.81,2.27-5.06,5.02-5.05,2.82,0,5.06,2.32,5.05,5.2Z"/><path class="cls-3" d="M508.13,109.14c0,2.64-2.26,4.84-4.99,4.88-2.76.04-5.04-2.23-5.04-5,0-2.85,2.16-5.04,4.97-5.03,2.85,0,5.07,2.26,5.06,5.15Z"/><path class="cls-3" d="M412.11,103.99c2.84-.02,5.08,2.22,5.1,5.11.02,2.67-2.18,4.85-4.94,4.92-2.76.06-5.05-2.17-5.07-4.95-.02-2.85,2.11-5.05,4.91-5.07Z"/><path class="cls-3" d="M509.66,109.05c0-2.92,2.05-5.04,4.91-5.06,2.81-.01,5.1,2.28,5.11,5.12.01,2.62-2.26,4.85-4.99,4.91-2.76.06-5.02-2.18-5.03-4.97Z"/><path class="cls-3" d="M31.56,110.26c-2.59,0-4.6-1.98-4.63-4.56-.03-2.69,1.96-4.79,4.56-4.82,2.59-.02,4.8,2.22,4.78,4.86-.01,2.47-2.14,4.51-4.72,4.51Z"/><path class="cls-3" d="M95.88,44.11c2.61,0,4.62,1.95,4.66,4.53.04,2.74-1.87,4.73-4.57,4.76-2.66.03-4.83-2.03-4.81-4.58.02-2.59,2.14-4.7,4.72-4.71Z"/><path class="cls-1" d="M276.17,151.13c-7.17-.03-13.71-3.54-19.03-9.6-.53-.61-1.08-1.21-1.55-1.87-1.35-1.87-1.08-4.29.61-5.86,1.63-1.51,4.01-1.62,5.78-.23.81.64,1.43,1.46,2.11,2.23,3.06,3.5,6.8,5.77,11.49,6.31,5.09.59,8.75-1.06,11.04-5.72,2.03-4.15,2.44-8.47,1.07-12.89-1.44-4.66-4.51-6.99-10.06-7.37-5.34-.36-9.58,2.06-13.39,5.47-4.49,4.02-8.09,8.82-11.9,13.43-3.1,3.74-6.23,7.46-9.98,10.58-3.54,2.94-7.45,5.15-12.08,5.83-6.64.97-12.39-.92-17.23-5.5-4.32-4.09-6.76-9.19-7.42-15.07-.43-3.9.47-7.62,2.3-11.08,3.45-6.5,8.62-10.86,15.98-12.24,7.18-1.35,13.55.55,19.16,5.14,1.8,1.48,3.4,3.16,4.67,5.13,1.35,2.1,1.02,4.46-.76,5.98-1.74,1.49-4.23,1.47-5.9-.1-.54-.51-.98-1.15-1.45-1.73-3.12-3.8-7.07-5.91-12.07-5.84-2.38.03-4.57.76-6.54,2.07-2.54,1.68-4.39,3.96-5.57,6.77-.95,2.26-1.16,4.58-.53,6.96.83,3.16,2.34,5.91,4.86,8.04,3.56,3.01,7.55,3.5,11.82,1.84,2.5-.97,4.59-2.59,6.52-4.43,3.89-3.69,7.15-7.93,10.54-12.05,3.33-4.04,6.69-8.05,10.75-11.4,3.84-3.18,8.06-5.61,13.05-6.43,4.28-.7,8.5-.44,12.59,1.07,4.76,1.75,8.24,5.01,10.17,9.63,3.74,8.97,2.98,17.63-2.75,25.6-3.71,5.16-8.96,7.4-16.29,7.32Z"/></svg>