<?xml version="1.0" encoding="utf-8"?>
<!-- Generator: Adobe Illustrator 25.2.0, SVG Export Plug-In . SVG Version: 6.00 Build 0)  -->
<svg version="1.1" id="Layer_1" xmlns="http://www.w3.org/2000/svg" xmlns:xlink="http://www.w3.org/1999/xlink" x="0px" y="0px"
	 viewBox="0 0 800 400" style="enable-background:new 0 0 800 400;" xml:space="preserve">
<style type="text/css">
	.st0{fill:#FC5C00;}
	.st1{fill:#A0A0A0;}
</style>
<g>
	<g transform="translate(0.000000,1020.000000) scale(0.100000,-0.100000)">
		<path class="st0" d="M1099.2,9113c0-1.3,6-8.9,13.6-16.9c16.9-18.2,24.1-34.7,31.4-70.5c7.3-37,5-92.3-6.9-152.2
			c-10.9-55.9-76.7-255.4-161.8-489.6c-13.6-37.4-23.8-68.8-22.8-70.1c0.7-1.3,15.9-12.6,33.4-24.8c37.7-26.1,87-62.5,126.7-94.3
			c15.9-12.2,30.1-22.5,31.4-22.5c1.7,0,7.3,11.6,12.6,25.8c5.3,13.9,31.4,82.7,58.2,152.8c59.9,155.5,168.4,440,170.4,445.9
			c2.3,6,7.3,2.3,9.3-6.6c0.7-4.3,32.4-93.9,70.1-199.5c37.7-105.5,85.3-239.5,105.9-297.7c56.6-159.1,119.8-336.8,155.5-436.7
			c38.7-108.5,79.4-223.6,138.6-390.3l44.3-125.7l37.7-36.1c87-83.7,222-188.2,338.4-262c59.9-38,162.8-95.9,165.7-93.3
			c0.7,0.7-5.3,10.3-13.6,20.8c-67.8,91-205.4,396.3-343,760.8c-114.1,303.3-301,851.5-426.1,1248.8
			c-20.2,64.5-38.4,121.4-40.4,126.7l-3.3,8.9h-262.7C1217.3,9115,1099.2,9114,1099.2,9113z"/>
		<path class="st0" d="M3186.3,8847.7c0,0-72.1-180-109.8-275.2c-55.9-140.6-144.9-364.5-255.4-641.8
			c-43.3-108.2-80.6-206.1-81.3-209.1c8,0,174.5,0,174.5,0l3.7,9.9c2,5,25.5,68.5,51.9,141.3s50.9,137.3,50.9,137.3l430.7,3.3
			l2.7-10.6c3.3-7.9,28.1-74.1,54.9-147.2l49.2-134c0,0,171.4,0,175.3,0c0,1.7-42.9,111.5-93.8,239.5
			c-50.6,128-150.8,380.1-222.3,560l-129.9,326.5H3186.3z M3262.7,8527.2c13.2-36.1,40.7-111.5,61.5-168
			c20.5-56.2,45.3-124.4,55.2-151.2s17.2-49.6,16.2-50.6c-1.7-1.7-321.5-2.3-321.5-0.7c0,0.3,21.8,59.5,48.3,131.3
			c26.5,71.8,62.5,169.7,80.1,217.7c17.5,47.6,32.7,86.7,34.1,86.7C3237.5,8592.3,3249.4,8562.9,3262.7,8527.2z"/>
		<path class="st0" d="M3953.1,8847.7c0-2.5-2.3-254.7-2.3-563.7v-562l244.1,1.3c263.3,1.7,255.7,1,323.2,20.5
			c40,11.2,115.8,49.6,150.8,75.8c129.7,96.3,209.4,238.8,227.6,406.2c14.2,129.7-20.2,274.6-90.3,379.8
			c-87.3,130.3-201.8,208.4-348.7,237.2c-25.1,4.6-59.2,5.6-265.3,6.6C4061.9,8850.4,3954.4,8849,3953.1,8847.7z M4456.9,8698.5
			c80.7-24.1,151.5-77.7,202.1-153.8c26.8-39.7,39.7-66.2,53.6-109.5c16.2-50.9,22.8-93.6,22.8-148.9c0-78.7-13.9-141.3-46.6-208.4
			c-52.6-107.8-133.6-178-236.9-205.8l-33.1-8.6l-152.2-0.3l-152.2-0.3l-1,422.8l-0.7,422.8l159.4-1
			C4426.4,8706.1,4433.1,8705.8,4456.9,8698.5z"/>
		<path class="st0" d="M5189.6,8847.7c-1-2.3-1.3-257-1-564.7l1-561.4H5350l0.7,163.4l1,163.1l126,1l126,0.7l87-133
			c48-73.4,95.9-147.2,106.8-163.7l19.8-31.4h180.2c0,0-28.6,46.7-61,95.6c-101.6,154.5-169.7,259.3-169.7,262
			c0,1.3,7.6,6,17.2,10.6c26.8,12.2,54.9,31.4,81.7,55.6c152.8,136.3,176.3,384.4,51.9,549.8c-65.2,86.7-157.8,139.3-266.3,151.8
			C5606.7,8852,5191.6,8852.7,5189.6,8847.7z M5660.3,8703.2c60.5-14.2,114.1-59.9,144.6-122.4c32.7-67.5,38.7-145.2,16.5-221.6
			c-22.2-76.4-79.1-137.3-151.5-161.4c-19.5-6.6-27.8-6.9-169.4-7.3h-148.9l-1,259l-0.7,258.7h144.6
			C5610.7,8708.1,5643.5,8707.1,5660.3,8703.2z"/>
		<path class="st0" d="M6301.4,8847.7V7722.3h163.4l-0.7,563.4l-1,562H6301.4z"/>
		<path class="st1" d="M353.3,8397.5c207.7-71.1,365.2-167.7,510.4-313.9c137.6-138.3,221.6-264,392.7-587.8
			c26.8-50.9,67.5-127.7,90.3-170.4c151.2-283.8,299.4-464.8,482-588.5c187.9-127.4,410.2-198.5,709.6-227.3
			c73.1-6.9,294.4-9.9,387-5c97.3,5,286.5,21.2,290.1,24.5c0.3,0.7-18.2,5-41.4,10.3c-119.4,25.8-226.6,55.2-343.7,94.3
			c-355.3,118.4-631.8,277.9-895.1,516.1c-102.2,92.6-258,262-372.8,405.6c-242.8,303-397.3,467.8-540.9,576.3
			c-184.3,139.3-400.9,230.9-641.8,272.3c-32.7,5.3-64.8,10.6-71.1,11.6C302.3,8416.3,322.5,8408.1,353.3,8397.5z"/>
		<path class="st0" d="M800.5,7903.6c-77.4-203.8-161.1-406.2-262-634.5c-64.2-144.6-174-350.6-223.6-419.1
			c-10.6-14.9-19.5-28.4-19.5-30.4c0-2.6,75.8-3.6,259.7-3.6c148.5,0,259.7,1.3,259.7,3c0,1.7-9.3,12.2-20.2,23.8
			c-65.8,68.5-94.6,146.9-77.4,212.7c2.6,10.3,31.1,87,63.2,170c32.1,83,70.8,184.6,86.3,225.6c15.9,41,30.4,76.4,32.7,79.1
			c9.9,10.9,31.4-25.1,90.6-151.8c123.1-264.3,270.6-461.5,454.9-608.3c84-67.2,145.2-106.2,242.8-155.5
			c77.4-39,116.1-55.2,198.2-83c93-31.1,191.9-56.2,168.4-42.7c-3.3,2-23.8,10.9-46,19.8c-76.7,31.4-163.7,77.7-234.5,124.1
			c-95.6,62.9-163.1,118.4-242.8,200.1c-64.5,66.5-118.8,132.3-168.7,204.8c-87,126.7-144.9,232.6-262,479.3
			c-96.6,203.4-145.6,292.8-199.1,362.6c-16.2,21.5-72.4,81-76.4,81C823.3,7960.5,812.4,7934.7,800.5,7903.6z"/>
		<g>
			<path class="st1" d="M2739.1,7098.1v269.2h93.2c18.3,0,33.7-2.4,46.2-7.3c12.5-4.9,21.6-11.3,27.3-19.4
				c5.6-8.1,9.6-15.8,11.7-23.2c2.2-7.4,3.2-15.2,3.2-23.6c0-7.8-1.1-14.9-3.2-21.5c-2.2-6.6-4.8-11.8-7.9-15.8
				c-3.1-3.9-6.2-7.3-9.5-10.2c-3.2-2.8-5.9-4.8-8.2-5.8l-3.2-1.6l5.1-2.2c2.1-0.8,5.9-2.9,11.3-6.4c5.4-3.5,10.2-7.4,14.4-11.6
				c4.1-4.3,8-10.3,11.5-18.1c3.5-7.8,5.3-16.3,5.3-25.5c0-8.9-1.2-17.3-3.6-25c-2.4-7.8-6.7-15.9-12.9-24.3
				c-6.2-8.5-16.1-15.2-29.7-20.2c-13.6-5-30.4-7.5-50.4-7.5H2739.1z M2776.8,7253.4h55.2c16.7,0,29.4,2.8,38.1,8.3
				c8.7,5.5,13.1,15.8,13.1,30.9c0,15.4-4.6,26.1-13.9,32.1c-9.3,6-22.9,9.1-40.9,9.1h-51.6V7253.4z M2776.8,7131.3l60.9,0.4
				c20.8,0,36.2,3.5,46.2,10.4c10.1,7,15.1,18.5,15.1,34.7c0,16.7-5.5,28-16.6,34.1c-11,6-26.9,9.1-47.5,9.1h-58.1V7131.3z"/>
			<path class="st1" d="M2988.6,7209.1v158.2h37.6v-161.4c0-26.4,5.9-45.9,17.7-58.5c11.8-12.6,30.1-18.9,54.9-18.9
				c24.8,0,43.1,6.3,54.9,18.9c11.8,12.6,17.7,32.1,17.7,58.5v161.4h37.4v-158.2c0-36.3-9.6-64.4-28.8-84.4
				c-19.2-20-46.3-30-81.3-30c-35,0-62.1,10-81.4,30C2998.2,7144.7,2988.6,7172.8,2988.6,7209.1z"/>
			<path class="st1" d="M3265.9,7293.8c0,21.3,7.6,39.4,23,54.3c15.3,14.9,39,22.4,71,22.4c24.2,0,47.3-5.6,69.4-16.9v-37
				c-19.7,11.8-41.3,17.7-64.8,17.7c-40.7,0-61.1-13.5-61.1-40.4c0-7.2,3.6-13.5,10.7-18.9c7.2-5.4,16-9.7,26.5-12.9
				c10.5-3.2,22-7.4,34.5-12.5c12.5-5.1,24-10.6,34.5-16.4c10.5-5.8,19.3-14.3,26.4-25.4c7.1-11.2,10.6-24.2,10.6-39
				c0-23.1-8.6-41.2-25.8-54.2c-17.2-13-41-19.5-71.3-19.5c-26.9,0-53.6,6.6-80,19.7v38.8c25-15.1,50.5-22.7,76.7-22.7
				c41.9,0,62.9,12.6,63.1,37.8c0,10.8-3.5,20-10.6,27.6c-7.1,7.6-15.9,13.1-26.4,16.6l-34.7,11.6c-12.6,4.3-24.1,8.8-34.6,13.3
				c-10.4,4.5-19.2,11.6-26.3,21.2C3269.4,7268.5,3265.9,7280.2,3265.9,7293.8z"/>
			<path class="st1" d="M3504.8,7098.1v269.2h37.2v-269.2H3504.8z"/>
			<path class="st1" d="M3611.2,7098.1v269.2h42.8l150.6-214.2v214.2h37.6v-269.2h-41.6l-151.7,215.6v-215.6H3611.2z"/>
			<path class="st1" d="M3908.2,7098.1v269.2h175.6v-35.1h-137.9v-82h121.4v-35.1h-121.4v-82h137.9v-35.1H3908.2z"/>
			<path class="st1" d="M4131.3,7293.8c0,21.3,7.7,39.4,23,54.3c15.3,14.9,39,22.4,71,22.4c24.2,0,47.3-5.6,69.4-16.9v-37
				c-19.7,11.8-41.3,17.7-64.8,17.7c-40.7,0-61.1-13.5-61.1-40.4c0-7.2,3.6-13.5,10.7-18.9c7.2-5.4,16-9.7,26.5-12.9
				c10.5-3.2,22-7.4,34.5-12.5c12.5-5.1,24-10.6,34.5-16.4c10.5-5.8,19.3-14.3,26.4-25.4c7.1-11.2,10.6-24.2,10.6-39
				c0-23.1-8.6-41.2-25.8-54.2c-17.2-13-41-19.5-71.3-19.5c-26.9,0-53.6,6.6-80,19.7v38.8c25-15.1,50.5-22.7,76.7-22.7
				c41.9,0,62.9,12.6,63.1,37.8c0,10.8-3.5,20-10.6,27.6c-7.1,7.6-15.9,13.1-26.4,16.6l-34.7,11.6c-12.6,4.3-24.1,8.8-34.6,13.3
				c-10.4,4.5-19.2,11.6-26.3,21.2C4134.8,7268.5,4131.3,7280.2,4131.3,7293.8z"/>
			<path class="st1" d="M4355.1,7293.8c0,21.3,7.7,39.4,23,54.3c15.3,14.9,39,22.4,71,22.4c24.2,0,47.3-5.6,69.4-16.9v-37
				c-19.7,11.8-41.3,17.7-64.8,17.7c-40.7,0-61.1-13.5-61.1-40.4c0-7.2,3.6-13.5,10.7-18.9c7.2-5.4,16-9.7,26.5-12.9
				c10.5-3.2,22-7.4,34.5-12.5c12.5-5.1,24-10.6,34.5-16.4c10.5-5.8,19.3-14.3,26.4-25.4c7.1-11.2,10.6-24.2,10.6-39
				c0-23.1-8.6-41.2-25.8-54.2c-17.2-13-41-19.5-71.3-19.5c-26.9,0-53.6,6.6-80,19.7v38.8c25-15.1,50.5-22.7,76.7-22.7
				c41.9,0,62.9,12.6,63.1,37.8c0,10.8-3.5,20-10.6,27.6c-7.1,7.6-15.9,13.1-26.4,16.6l-34.7,11.6c-12.6,4.3-24.1,8.8-34.6,13.3
				c-10.4,4.5-19.2,11.6-26.3,21.2C4358.7,7268.5,4355.1,7280.2,4355.1,7293.8z"/>
			<path class="st1" d="M4718,7174.3c0,15.1,3.7,29.3,11.2,42.6c7.5,13.3,22.1,25.9,43.7,37.9c-16.8,20.7-25.2,38.5-25.2,53.5
				c0,17.2,6.1,31.9,18.4,44.2c12.3,12.3,27.1,18.5,44.7,18.5c17.8,0,32.8-5.9,45-17.6s18.3-26.2,18.3-43.3
				c0-14.3-3.7-26.4-11.2-36.2c-7.4-9.8-19.5-19.6-36.2-29.3l52.5-62.9c4.8,11,8.3,22.6,10.5,34.7h36.9
				c-3.8-22.1-11.8-42.7-24.1-61.7l47-56.4h-44.9l-23.6,28c-21-20.8-46.1-31.1-75.1-31.1c-0.3,0-0.5,0-0.6,0
				c-15.1,0-28.5,2.6-40.2,7.8c-11.6,5.2-20.8,12-27.3,20.4c-6.6,8.4-11.5,16.9-14.8,25.6C4719.6,7157.5,4718,7166,4718,7174.3z
				 M4754.8,7173.1c0-4.1,0.7-8.4,2.1-12.9c1.4-4.5,3.9-9.5,7.5-14.9c3.6-5.4,9.1-9.9,16.4-13.4c7.4-3.6,16.1-5.3,26.3-5.3
				c20.6,0,38.4,8.1,53.4,24.3l-64.7,78.1c-9.6-5.1-17.5-10.3-23.6-15.6c-6.1-5.3-10.3-10.6-12.6-16c-2.3-5.4-3.7-9.6-4.2-12.7
				C4755.1,7181.5,4754.8,7177.7,4754.8,7173.1z M4789.8,7332.6c-6-5.9-8.9-13.2-8.9-21.8c0-8.6,7.5-22,22.6-40.1
				c15.7,8.9,26,16.2,30.7,21.9c4.8,5.7,7.1,12.2,7.1,19.7c0,8.3-2.8,15.2-8.5,20.8c-5.7,5.6-12.9,8.4-21.6,8.4
				C4802.8,7341.5,4795.7,7338.6,4789.8,7332.6z"/>
			<path class="st1" d="M5100.1,7332.3v35.1h219.1v-35.1H5228v-234.1h-37.2v234.1H5100.1z"/>
			<path class="st1" d="M5363.8,7098.1v269.2h175.6v-35.1h-137.9v-82h121.4v-35.1h-121.4v-82h137.9v-35.1H5363.8z"/>
			<path class="st1" d="M5586.9,7174.8c-5.1,16.7-7.7,36.1-7.7,58.1c0,22.1,2.6,41.4,7.7,58.1c5.1,16.7,11.7,30,19.8,39.9
				c8.1,9.9,17.8,18,29.3,24.2c11.4,6.2,22.6,10.4,33.5,12.5c10.9,2.1,22.5,3.2,34.9,3.2c28,0,55.4-5.3,82.4-16V7320
				c-25.4,11.3-51.4,16.9-78,16.9c-31.8,0-54.9-8.2-69.2-24.5c-14.3-16.4-21.5-42.9-21.5-79.5c0-36.3,7.2-62.7,21.5-79.2
				c14.3-16.6,37.4-24.8,69.2-24.8c26.7,0,52.7,5.6,78,16.9v-34.7c-26.9-10.8-54.4-16.2-82.4-16.2c-12.4,0-24,1.1-34.9,3.2
				c-10.9,2.1-22.1,6.3-33.5,12.5c-11.4,6.2-21.2,14.3-29.3,24.2C5598.6,7144.8,5592,7158.1,5586.9,7174.8z"/>
			<path class="st1" d="M5839.9,7098.1v269.2h37.2v-117.1h129.1v117.1h37v-269.2h-37v117.1h-129.1v-117.1H5839.9z"/>
			<path class="st1" d="M6112.3,7098.1v269.2h42.8l150.6-214.2v214.2h37.6v-269.2h-41.6l-151.7,215.6v-215.6H6112.3z"/>
			<path class="st1" d="M6406.9,7174.8c-5.1,16.7-7.7,36.1-7.7,58.1c0,22.1,2.6,41.4,7.7,58.1c5.1,16.7,11.7,30,19.8,39.9
				c8.1,9.9,17.8,18,29.3,24.2c11.4,6.2,22.6,10.4,33.5,12.5c10.9,2.1,22.5,3.2,34.9,3.2c12.3,0,24-1.1,34.9-3.2
				c10.9-2.1,22.1-6.3,33.5-12.5c11.4-6.2,21.2-14.3,29.3-24.2c8.1-9.9,14.7-23.2,19.8-39.9c5.1-16.7,7.7-36.1,7.7-58.1
				c0-22.1-2.6-41.5-7.7-58.1c-5.1-16.7-11.7-30-19.8-39.9c-8.1-9.9-17.8-18-29.3-24.2c-11.4-6.2-22.6-10.4-33.5-12.5
				c-10.9-2.1-22.5-3.2-34.9-3.2c-12.4,0-24,1.1-34.9,3.2c-10.9,2.1-22.1,6.3-33.5,12.5c-11.4,6.2-21.2,14.3-29.3,24.2
				C6418.6,7144.8,6412,7158.1,6406.9,7174.8z M6442.2,7279.1c-3.7-13.1-5.5-28.5-5.5-46.2s1.8-33.1,5.5-46.2
				c3.7-13.1,8.2-23.2,13.6-30.4c5.4-7.2,12.2-13,20.4-17.3c8.2-4.3,15.9-7.1,23.2-8.3c7.2-1.2,15.5-1.8,24.9-1.8
				c9.4,0,17.7,0.6,25,1.8c7.3,1.2,15,3.9,23.3,8.3c8.2,4.3,15,10.1,20.4,17.3c5.4,7.2,9.9,17.4,13.5,30.4
				c3.6,13.1,5.4,28.5,5.4,46.2s-1.8,33.1-5.4,46.2c-3.6,13.1-8.1,23.2-13.5,30.4c-5.4,7.2-12.2,13-20.4,17.3
				c-8.2,4.3-16,7.1-23.3,8.3c-7.3,1.2-15.6,1.8-25,1.8c-9.4,0-17.7-0.6-24.9-1.8c-7.2-1.2-14.9-3.9-23.2-8.3
				c-8.2-4.3-15-10.1-20.4-17.3C6450.4,7302.4,6445.9,7292.2,6442.2,7279.1z"/>
			<path class="st1" d="M6706.5,7098.1v269.2h37.2v-234.1h134v-35.1H6706.5z"/>
			<path class="st1" d="M6917.5,7174.8c-5.1,16.7-7.7,36.1-7.7,58.1c0,22.1,2.6,41.4,7.7,58.1c5.1,16.7,11.7,30,19.8,39.9
				c8.1,9.9,17.8,18,29.3,24.2c11.4,6.2,22.6,10.4,33.5,12.5c10.9,2.1,22.5,3.2,34.9,3.2c12.3,0,24-1.1,34.9-3.2
				c10.9-2.1,22.1-6.3,33.5-12.5c11.4-6.2,21.2-14.3,29.3-24.2c8.1-9.9,14.7-23.2,19.8-39.9c5.1-16.7,7.7-36.1,7.7-58.1
				c0-22.1-2.6-41.5-7.7-58.1c-5.1-16.7-11.7-30-19.8-39.9c-8.1-9.9-17.8-18-29.3-24.2c-11.4-6.2-22.6-10.4-33.5-12.5
				c-10.9-2.1-22.5-3.2-34.9-3.2c-12.4,0-24,1.1-34.9,3.2c-10.9,2.1-22.1,6.3-33.5,12.5c-11.4,6.2-21.2,14.3-29.3,24.2
				C6929.2,7144.8,6922.6,7158.1,6917.5,7174.8z M6952.8,7279.1c-3.7-13.1-5.5-28.5-5.5-46.2s1.8-33.1,5.5-46.2
				c3.7-13.1,8.2-23.2,13.6-30.4c5.4-7.2,12.2-13,20.4-17.3c8.2-4.3,15.9-7.1,23.2-8.3c7.2-1.2,15.5-1.8,24.9-1.8
				c9.4,0,17.7,0.6,25,1.8c7.3,1.2,15,3.9,23.3,8.3c8.2,4.3,15,10.1,20.4,17.3c5.4,7.2,9.9,17.4,13.5,30.4
				c3.6,13.1,5.4,28.5,5.4,46.2s-1.8,33.1-5.4,46.2c-3.6,13.1-8.1,23.2-13.5,30.4c-5.4,7.2-12.2,13-20.4,17.3
				c-8.2,4.3-16,7.1-23.3,8.3c-7.3,1.2-15.6,1.8-25,1.8c-9.4,0-17.7-0.6-24.9-1.8c-7.2-1.2-14.9-3.9-23.2-8.3
				c-8.2-4.3-15-10.1-20.4-17.3C6961,7302.4,6956.5,7292.2,6952.8,7279.1z"/>
			<path class="st1" d="M7208.8,7232.9c0,21.8,2.6,41.1,7.7,57.9c5.1,16.8,11.7,30.1,19.8,39.9c8.1,9.8,17.8,17.8,29.1,24
				c11.3,6.2,22.4,10.4,33.3,12.5c10.9,2.1,22.7,3.2,35.3,3.2c29.8,0,58.1-5.2,84.7-15.6v-34.5c-26.1,10.8-53.2,16.2-81.2,16.2
				c-9.7,0-18.4-0.6-26-1.8c-7.6-1.2-15.7-3.9-24.1-8.3c-8.5-4.3-15.5-10.1-21.2-17.3c-5.7-7.2-10.4-17.3-14.2-30.2
				c-3.8-12.9-5.7-28.3-5.7-46s1.9-33.1,5.7-46.2c3.8-13.1,8.5-23.2,14.2-30.4c5.6-7.2,12.8-13,21.4-17.3c8.6-4.3,16.8-7.1,24.6-8.3
				c7.8-1.2,16.5-1.8,26.1-1.8c17.7,0,35.8,2.6,54.2,7.7v75.9h-55v35.1h91.2v-131.2c-29.8-14.2-61.1-21.3-93.8-21.3
				c-0.4,0-0.7,0-1,0c-12.6,0-24.4,1.1-35.3,3.2c-10.9,2.1-22,6.3-33.3,12.5c-11.3,6.2-21,14.3-29.1,24.2
				c-8.1,9.9-14.7,23.2-19.8,39.9C7211.4,7191.5,7208.8,7210.9,7208.8,7232.9z"/>
			<path class="st1" d="M7463,7367.3h45.1l75.5-110.2l75.5,110.2h45.5l-102.5-148.6v-120.6h-37v120.2L7463,7367.3z"/>
		</g>
		<path class="st0" d="M7156,8848.4c0,0-72.1-180-109.8-275.2c-55.9-140.6-144.9-364.5-255.4-641.8
			c-43.3-108.2-80.6-206.1-81.3-209.1c8,0,174.5,0,174.5,0l3.7,9.9c2,5,25.5,68.5,51.9,141.3c26.5,72.8,50.9,137.3,50.9,137.3
			l430.7,3.3l2.7-10.6c3.3-7.9,28.1-74.1,54.9-147.2l49.2-134c0,0,171.4,0,175.3,0c0,1.7-42.9,111.5-93.8,239.5
			c-50.6,128-150.8,380.1-222.3,560l-129.9,326.5H7156z M7232.4,8527.8c13.2-36.1,40.7-111.5,61.5-168
			c20.5-56.2,45.3-124.4,55.2-151.2c9.9-26.8,17.2-49.6,16.2-50.6c-1.7-1.7-321.5-2.3-321.5-0.7c0,0.3,21.8,59.5,48.3,131.3
			c26.5,71.8,62.5,169.7,80.1,217.7c17.5,47.6,32.7,86.7,34.1,86.7C7207.3,8593,7219.2,8563.6,7232.4,8527.8z"/>
	</g>
	<rect x="273.9" y="263.3" class="st1" width="496.5" height="2.5"/>
</g>
<g>
	<path d="M42.5,62.3c-2.2-1.2-4-2.9-5.3-5.1c-1.3-2.2-1.9-4.6-1.9-7.3c0-2.7,0.6-5.1,1.9-7.3c1.3-2.2,3-3.9,5.3-5.1
		c2.2-1.2,4.8-1.8,7.6-1.8c2.8,0,5.3,0.6,7.5,1.8c2.2,1.2,4,2.9,5.3,5.1c1.3,2.2,1.9,4.6,1.9,7.3s-0.6,5.1-1.9,7.3
		c-1.3,2.2-3,3.8-5.3,5.1c-2.2,1.2-4.8,1.8-7.5,1.8C47.3,64.2,44.8,63.6,42.5,62.3z M55.6,59.2c1.6-0.9,2.9-2.2,3.8-3.8
		c0.9-1.6,1.4-3.4,1.4-5.5c0-2-0.5-3.8-1.4-5.5c-0.9-1.6-2.2-2.9-3.8-3.8c-1.6-0.9-3.5-1.4-5.5-1.4c-2,0-3.9,0.5-5.5,1.4
		c-1.7,0.9-2.9,2.2-3.9,3.8c-0.9,1.6-1.4,3.4-1.4,5.5c0,2,0.5,3.8,1.4,5.5c0.9,1.6,2.2,2.9,3.9,3.8c1.7,0.9,3.5,1.4,5.5,1.4
		C52.2,60.6,54,60.2,55.6,59.2z"/>
	<path d="M74.9,39.5v9.7h13.9v3.4H74.9v11.2h-4V36.1h19.6v3.5H74.9z"/>
	<path d="M100.1,39.5v9.7H114v3.4h-13.9v11.2h-4V36.1h19.6v3.5H100.1z"/>
	<path d="M121.3,36.1h4v27.8h-4V36.1z"/>
	<path d="M138.5,62.3c-2.2-1.2-4-2.9-5.3-5.1c-1.3-2.2-1.9-4.6-1.9-7.3s0.6-5.1,1.9-7.3c1.3-2.2,3-3.8,5.3-5.1
		c2.2-1.2,4.8-1.8,7.5-1.8c2.2,0,4.2,0.4,6,1.1c1.8,0.7,3.3,1.8,4.6,3.2l-2.6,2.5c-2.1-2.2-4.7-3.3-7.8-3.3c-2.1,0-3.9,0.5-5.6,1.4
		c-1.7,0.9-3,2.2-3.9,3.8c-0.9,1.6-1.4,3.4-1.4,5.5c0,2,0.5,3.8,1.4,5.5c0.9,1.6,2.2,2.9,3.9,3.8c1.7,0.9,3.5,1.4,5.6,1.4
		c3.1,0,5.7-1.1,7.8-3.3l2.6,2.5c-1.3,1.4-2.8,2.5-4.6,3.3c-1.8,0.7-3.8,1.1-6,1.1C143.2,64.2,140.7,63.6,138.5,62.3z"/>
	<path d="M162.2,36.1h4v27.8h-4V36.1z"/>
	<path d="M192.2,56.9h-14.8l-3.1,6.9h-4.1l12.6-27.8h3.9l12.6,27.8h-4.2L192.2,56.9z M190.8,53.7l-6-13.6l-6,13.6H190.8z"/>
	<path d="M203.6,36.1h4v24.3h15v3.5h-19V36.1z"/>
	<path d="M257.1,38.7c2.1,1.7,3.1,4.1,3.1,7.1c0,3-1,5.4-3.1,7.1c-2.1,1.7-4.9,2.6-8.5,2.6h-6.9v8.4h-4V36.1h10.8
		C252.2,36.1,255.1,36.9,257.1,38.7z M254.3,50.4c1.3-1.1,2-2.6,2-4.6c0-2-0.7-3.5-2-4.6c-1.3-1.1-3.2-1.6-5.8-1.6h-6.7V52h6.7
		C251,52,252.9,51.5,254.3,50.4z"/>
	<path d="M282.3,56.9h-14.8l-3.1,6.9h-4.1L273,36.1h3.9l12.6,27.8h-4.2L282.3,56.9z M281,53.7l-6-13.6l-6,13.6H281z"/>
	<path d="M312.3,63.9l-6-8.5c-0.7,0.1-1.3,0.1-1.7,0.1h-6.9v8.4h-4V36.1h10.8c3.6,0,6.4,0.9,8.5,2.6c2.1,1.7,3.1,4.1,3.1,7.1
		c0,2.1-0.5,4-1.6,5.5c-1.1,1.5-2.6,2.6-4.5,3.3l6.6,9.3H312.3z M310.1,50.4c1.3-1.1,2-2.6,2-4.6c0-2-0.7-3.5-2-4.6
		c-1.3-1.1-3.2-1.6-5.8-1.6h-6.7V52h6.7C306.9,52,308.8,51.5,310.1,50.4z"/>
	<path d="M327.6,39.5h-9.5v-3.5h23v3.5h-9.5v24.3h-3.9V39.5z"/>
	<path d="M369.3,36.1v27.8H366l-16.7-20.7v20.7h-4V36.1h3.3l16.7,20.7V36.1H369.3z"/>
	<path d="M397.8,60.4v3.5h-20.1V36.1h19.6v3.5h-15.6v8.5h13.9v3.4h-13.9v9H397.8z"/>
	<path d="M422.8,63.9l-6-8.5c-0.7,0.1-1.3,0.1-1.7,0.1h-6.9v8.4h-4V36.1H415c3.6,0,6.4,0.9,8.5,2.6c2.1,1.7,3.1,4.1,3.1,7.1
		c0,2.1-0.5,4-1.6,5.5c-1.1,1.5-2.6,2.6-4.5,3.3l6.6,9.3H422.8z M420.7,50.4c1.3-1.1,2-2.6,2-4.6c0-2-0.7-3.5-2-4.6
		c-1.3-1.1-3.2-1.6-5.8-1.6h-6.7V52h6.7C417.4,52,419.3,51.5,420.7,50.4z"/>
	<path d="M431.5,47.3c-0.5-0.5-0.8-1.2-0.8-2c0-0.8,0.3-1.4,0.8-1.9c0.5-0.5,1.2-0.8,1.9-0.8c0.7,0,1.4,0.3,1.9,0.8
		c0.5,0.5,0.8,1.2,0.8,1.9s-0.3,1.4-0.8,2c-0.5,0.5-1.1,0.8-1.8,0.8C432.6,48.1,432,47.8,431.5,47.3z M431.5,63.3
		c-0.5-0.5-0.8-1.2-0.8-2c0-0.8,0.3-1.4,0.8-1.9c0.5-0.5,1.2-0.8,1.9-0.8c0.7,0,1.4,0.3,1.9,0.8c0.5,0.5,0.8,1.2,0.8,1.9
		s-0.3,1.4-0.8,2c-0.5,0.5-1.1,0.8-1.8,0.8C432.6,64.1,432,63.8,431.5,63.3z"/>
</g>
</svg>
