<?xml version="1.0" encoding="UTF-8"?><svg id="Layer_1" xmlns="http://www.w3.org/2000/svg" viewBox="0 0 550 250"><defs><style>.cls-1{fill:#a3a3a3;}.cls-1,.cls-2,.cls-3,.cls-4,.cls-5,.cls-6,.cls-7,.cls-8,.cls-9,.cls-10,.cls-11,.cls-12,.cls-13,.cls-14,.cls-15,.cls-16,.cls-17,.cls-18,.cls-19,.cls-20,.cls-21,.cls-22,.cls-23,.cls-24,.cls-25,.cls-26,.cls-27,.cls-28,.cls-29,.cls-30,.cls-31,.cls-32,.cls-33,.cls-34,.cls-35,.cls-36,.cls-37,.cls-38,.cls-39,.cls-40,.cls-41,.cls-42,.cls-43,.cls-44,.cls-45,.cls-46{stroke-width:0px;}.cls-2{fill:#f6e8cc;}.cls-3{fill:#fefefe;}.cls-4{fill:#f9e6d1;}.cls-5{fill:#f45d1d;}.cls-6{fill:#fbdfc6;}.cls-7{fill:#f3f3f3;}.cls-8{fill:#fafcf8;}.cls-9{fill:#e18172;}.cls-10{fill:#fae1cb;}.cls-11{fill:#f7f7f7;}.cls-12{fill:#f7dfc8;}.cls-13{fill:#9e9e9e;}.cls-14{fill:#f7fbf9;}.cls-15{fill:#9b9b9b;}.cls-16{fill:#f9d7c2;}.cls-17{fill:#e7e7e7;}.cls-18{fill:#a1a1a1;}.cls-19{fill:#e5f4eb;}.cls-20{fill:#a0a0a0;}.cls-21{fill:#9f9f9f;}.cls-22{fill:#9d9d9d;}.cls-23{fill:#d37448;}.cls-24{fill:#a2a2a2;}.cls-25{fill:#f55d1e;}.cls-26{fill:#fce4c3;}.cls-27{fill:#f65c1e;}.cls-28{fill:#f79a77;}.cls-29{fill:#dd6052;}.cls-30{fill:#f9e7bb;}.cls-31{fill:#a6a6a6;}.cls-32{fill:#fefefd;}.cls-33{fill:#fbfbfb;}.cls-34{fill:#f75e1f;}.cls-35{fill:#efe9cd;}.cls-36{fill:#dc6949;}.cls-37{fill:#d28371;}.cls-38{fill:#f0e2c3;}.cls-39{fill:#fcfcfc;}.cls-40{fill:#f8dac3;}.cls-41{fill:#aaa;}.cls-42{fill:#d9723f;}.cls-43{fill:#f45b1d;}.cls-44{fill:#f8e8cd;}.cls-45{fill:#f5fafb;}.cls-46{fill:#f65d1e;}</style></defs><path class="cls-3" d="M10.02,27.99c172.74,0,345.49,0,518.23-.06,2.26,0,2.77.51,2.77,2.77-.07,65.92-.07,131.85,0,197.77,0,2.06-.4,2.47-2.47,2.47-172.04-.06-344.08-.06-516.12,0-2.06,0-2.47-.4-2.47-2.46.07-66.83.06-133.65.06-200.48Z"/><path class="cls-34" d="M155.69,175c.82,1.98,1.63,3.97,2.45,5.95.65,1.97,1.02,4.08,2.89,5.39.82,1.62,1.65,3.25,2.47,4.87-.37,1.71-1.51.64-2.35.64-9.02-4.86-17.12-11.03-25.03-17.49-4.49-3.67-7.35-8.04-9.22-13.6-6.25-18.58-12.96-37.01-19.52-55.49-3.94-11.11-7.93-22.21-11.9-33.31-.58-.94-1.01-2.52-2.27-.53-4.87,12.79-9.75,25.58-14.59,38.37-.58,1.54-1.17,2.11-2.71.87-3.12-2.5-6.3-4.91-9.67-7.11-2.77-1.81-.2-3.87.28-5.8,1.83-4.96,4.31-9.71,4.92-15.07-.19-1.21.56-2.04,1.16-2.93,1.95-5.77,4.39-11.39,5.15-17.51.57-4.62.71-9.17-2.05-13.2.51-.93,1.3-.67,1.94-.67,10.02-.01,20.04.03,30.06-.01,1.72,0,2.77.44,3.34,2.23,5.65,17.6,11.06,35.28,17.15,52.73,6.9,19.8,13.56,39.71,22.05,58.93,2.21,4.07,3.98,8.33,5.44,12.72Z"/><path class="cls-20" d="M23.16,96.38c4.71-.09,9.15,1.08,13.55,2.32,11.76,3.32,22.71,8.4,32.45,15.87,8.95,6.87,16.7,14.97,23.98,23.56,11.53,13.59,22.21,27.93,35.17,40.28,13.69,13.04,29.14,23.44,46.48,31.08,13.5,5.95,27.5,10.21,42.4,13.46-2.18,1.03-4.11.79-5.9.94-19.94,1.67-39.83,2.1-59.5-2.71-22.56-5.51-39.65-18.39-52.11-37.84-7.36-11.49-13.22-23.79-19.76-35.72-7.36-13.44-15.87-25.99-27.88-35.79-8.07-6.58-17.14-11.4-27-14.72-.64-.21-1.26-.48-1.88-.72Z"/><path class="cls-27" d="M314.75,71.3c9.39,6.73,15.42,15.62,17.08,27.15,1.11,7.78.24,15.38-3.19,22.57-.3.62-.5,1.29-.75,1.94-.4,1.44-.98,2.78-2.06,3.86-2.32,4.62-6.21,7.44-10.34,10.46-7.28,5.32-15.27,5.98-23.64,6-6.51.01-13.03.04-19.54-.01-4.08-.03-4.47-.4-4.88-4.33-.88-8.29-.84-16.59-.08-24.88.27-2.93-.52-5.77-.5-8.68.08-9.82.05-19.64.02-29.45,0-2.42.42-4.78.64-7.18.23-2.45,1.65-3.62,3.95-3.65,8.21-.1,16.43-.35,24.64.12,5,.29,9.99.81,14.59,3.12,1.54.77,3.05,1.51,4.08,2.96Z"/><path class="cls-34" d="M32.23,182.09c5.36-10.09,9.71-20.64,13.96-31.23,1.26-4.64,3.58-8.86,5.31-13.32,1.29-3.03,2.75-6.01,3.81-9.12.85-2.49,1.57-1.53,2.69-.3,6.41,7.05,10.5,15.48,14.6,23.94,5.44,11.23,10.39,22.73,17.54,33.05.89,1.15,2,2.16,2.38,3.64,2.34,4.92,6.4,8.5,9.94,12.45,6.89,7.67,15.04,13.82,24.09,18.77.95.52,1.8,1.22,2.7,1.83-.38,1.74-1.59.78-2.51.77-16.26-5.75-30.14-15.02-41.42-28.09-8.57-9.92-14.67-21.36-20.11-33.19-.94-2.05-1.74-5.53-3.59-5.4-2.19.15-2.39,3.71-3.24,5.85-2.97,7.51-5.65,15.14-8.67,22.63-2.15,5.33-1.79,10.13,1.93,14.59.28.24.5.52.66.84,1.06,2.78.5,4.06-2.42,4.09-7.55.07-15.12.69-22.65-.38-1.93-.27-4.02.48-5.79-.87-.74-1.47.12-2.31,1.2-3.07,1.66-2.23,3.32-4.46,4.35-7.08.42-1.64,1.27-3.04,2.31-4.35.03-.34.06-.68.09-1.02,1.35-1.44,1.69-3.46,2.84-5.02Z"/><path class="cls-5" d="M396.08,126.01c3.05,4.69,6.06,9.4,9.16,14.05.97,1.45,1.3,2.31-.99,2.27-2.71-.05-5.41-.04-8.12,0-1.46.03-2.06-.92-2.74-1.97-3.82-5.87-7.75-11.67-11.5-17.58-1.21-1.91-2.62-2.73-4.91-2.63-3.7.17-7.42.13-11.13-.02-2.19-.09-3.03.6-2.97,2.89.14,5.41-.04,10.83.1,16.24.06,2.22-.37,3.18-2.92,3.15-8.02-.1-8.02.01-8.03-8.03,0-21.45.05-42.91-.08-64.36-.02-3.06.9-4.03,3.9-3.93,9.11.32,18.28-.59,27.35.41,20.92,2.29,28.83,24.91,19.95,40.36-1.32,1.83-2.56,3.73-4.1,5.4h0c-1.51.72-2.5,1.94-3.2,3.42-1.06,1.33-3.35,1.34-3.83,3.05-.51,1.82,1.71,2.44,2.45,3.8.61,1.13.77,2.45,1.61,3.46Z"/><path class="cls-25" d="M252.66,142.35c-2.91-.01-5.82-.16-8.72,0-2.01.11-2.82-.79-3.44-2.52-1.82-5.09-3.86-10.09-5.64-15.19-.61-1.76-1.57-2.29-3.31-2.28-8.12.05-16.25.07-24.37-.02-1.75-.02-2.48.71-3.01,2.23-1.78,5.09-3.74,10.12-5.47,15.23-.64,1.89-1.5,2.79-3.63,2.57-2.18-.22-4.41-.12-6.62-.04-1.84.06-2.29-.47-1.56-2.27,3.27-8.07,6.43-16.19,9.65-24.28,5.48-13.75,10.97-27.49,16.46-41.23.71-1.77,1.67-3.48,2.07-5.31.61-2.8,2.29-3.21,4.8-3.2,2.29.01,3.26.87,4.12,2.94,4.63,11.19,8.58,22.65,13.65,33.66,2.22,3.34,3.4,7.17,4.87,10.84.37.92.65,1.87,1.1,2.76.75,2.57,1.88,4.99,3.12,7.36,1.54,5.23,3.93,10.12,5.96,15.15.48,1.18,1.09,2.41-.03,3.59Z"/><path class="cls-46" d="M467.78,110.49c4.04-10.01,8.09-20.02,12.1-30.04,1.59-3.98,3.09-7.99,4.65-11.98.47-1.22.88-2.64,2.66-2.21,2.02.48,4.63-1.13,5.87,2.11,3.11,8.13,6.45,16.17,9.68,24.26,5.37,13.47,10.73,26.96,16.09,40.43,1,2.51,1.99,5.03,3.06,7.51.57,1.31.29,1.83-1.17,1.8-2.71-.04-5.42-.04-8.13.02-1.63.03-2.23-.95-2.71-2.29-1.82-5.08-3.76-10.13-5.55-15.22-.62-1.75-1.56-2.53-3.49-2.51-8.13.09-16.25.09-24.38.03-1.71-.01-2.52.66-3.05,2.2-1.87,5.39-3.87,10.73-5.74,16.12-.4,1.15-1,1.63-2.16,1.63-2.61-.01-5.22,0-7.83,0-1.62,0-2.13-.56-1.46-2.23,2.29-5.63,4.47-11.3,6.67-16.97.29-.74.46-1.52.68-2.28,1.19-3.54,2.27-7.12,4.19-10.37Z"/><path class="cls-43" d="M438.33,104.43c0,11.73-.05,23.46.04,35.19.02,2.09-.59,2.74-2.7,2.77-8.14.12-8.12.19-8.12-7.87-.01-21.46.01-42.91-.13-64.36-.02-3.08.9-4.06,3.98-4.07,6.9-.02,6.93-.17,6.94,6.76.02,10.53,0,21.05,0,31.58h-.03Z"/><path class="cls-1" d="M354.17,152.73c54.79,0,109.57,0,164.36.04,1.26,0,3.56-.79,3.58.93.02,2.13-2.37,1.15-3.64,1.15-109.57.05-219.15.05-328.72.05-.3,0-.61.03-.9,0-1-.13-2.64.48-2.61-1.11.03-1.56,1.68-1.03,2.68-1.03,24.38-.03,48.77-.02,73.15-.02,30.7,0,61.41,0,92.11,0Z"/><path class="cls-45" d="M314.75,71.3c-7.08-4.02-14.72-5.4-22.79-5.17-6.81.19-13.63.14-20.45-.01-2.63-.06-3.41.8-3.4,3.43.09,23.35.08,46.69,0,70.04,0,2.3.77,2.86,2.97,2.82,7.12-.13,14.24-.3,21.35,0,14.24.6,25.49-4.62,33.63-16.38.29-.17.53-.12.74.14-1.83,2.01-1.18,4.68-1.68,7.01-.58,2.69-1.74,3.87-4.39,3.8-1.1-.03-2.21-.01-3.31,0-1.15.02-2.59.36-2.84,1.33-.44,1.79-1.09,3.01-2.99,3.43-.34.07-.73.75-.75,1.17-.04.66.63.65,1.11.67,1.11.03,2,.33,2.13,1.61.05.51-.04,1.06-.6,1.25-1.04.34-1.73-.18-2.65-.76-2.4-1.5-4.85-1.86-7.83-.66-2.55,1.03-4.82,3.01-7.83,2.97-.93-.01-1.75,0-2.51-.8,1.22-1.26,2.97-.03,4.36-1.09-1.12-1.35-2.08-2.66-4.02-1.1-.76.61-1.74.38-2.63.38-4.41.02-8.83.02-13.24,0-1.81,0-3.6-.09-5.25.9-.48.28-1.18.36-1.75.28-2.82-.38-5.64-1.18-8.2.94-.58-1.45.6-1.37.84-1.92,1-2.34,4.8-4.27.99-7.35-.42-.34-.2-1.53-.2-2.33,0-21.16,0-42.32,0-63.48,0-.3-.1-.65.02-.89,1.26-2.55,3.36-4.97.16-7.76-.54-.47.79-1.21,1.73-1.49,9.4-2.87,19.05-1.74,28.59-1.64,3.19.03,6.51,1.31,9.51,2.81,2.58,1.3,4.85.47,6.97-.91,1.01-.66,1.93-1.09,3.05-.63.65.27.58.99.53,1.59-.12,1.56-1.43,1.02-2.3,1.29-.27.08-.51.28-1.37.77,3.06.98,4.11,3.1,4.3,5.73Z"/><path class="cls-45" d="M243.05,116.49c-1.87-4.59-4.08-9.04-5.4-13.84,1.49-.09,2.04,1.5,3.33,1.84,1.41.38,2.57,3.65,4.26.22.23-.47,1.12-.21,1.57.28.62.67.58,1.46.27,2.24-.84,2.13-1.66,4.27-2.58,6.37-.87,1.99-.43,3.18,1.88,3.03,2.13-.14,1.83,1.63,2.02,2.64.49,2.65-.72,5.65,1.77,7.86-1.42,3.57-.63,4.81,3.3,3.43.74-.26,1.44,1.12,1.76,2.14.56,1.77.56,3.74,1.87,5.26.42.49.36,1.53-.19,1.51-2.18-.05-2.73,2.09-4.24,2.87-.22-3.77-2.38-6.85-3.61-10.27-.98-2.76-2.03-5.49-3.05-8.24-.69-2.57-1.72-5.01-2.96-7.36Z"/><path class="cls-21" d="M415.54,170.78c0,3.81-.05,7.38.03,10.96.02.98.21,1.93-1.06,2.01-1.62.1-1.2-1.04-1.19-2.07.03-4.1-.08-8.2-.09-12.3,0-1.04-.33-2.39,1-2.81,1.4-.45,2.39.24,3.19,1.54,2.35,3.82,4.83,7.56,7.68,11.98,0-2.98,0-5.25,0-7.53,0-1.4,0-2.81,0-4.21,0-.98.25-1.84,1.46-1.86,1.32-.03,1.32.94,1.32,1.88,0,4.11.05,8.23-.03,12.34-.02,1.08.61,2.59-1.08,3.05-1.51.41-2.38-.48-3.14-1.7-2.02-3.22-4.15-6.37-6.23-9.56-.37-.57-.58-1.28-1.87-1.7Z"/><path class="cls-18" d="M256.87,179.29c0-3.56-.02-7.11.01-10.67,0-.93-.32-2.23,1.31-2.11,1.34.09,1.08,1.22,1.09,2.07.02,4.2.02,8.41,0,12.61,0,.95.3,2.14-.99,2.55-1.52.48-2.51-.45-3.25-1.57-2.13-3.26-4.18-6.56-6.28-9.84-.3-.46-.38-1.19-1.52-1.14,0,3.34.02,6.7-.01,10.05,0,1.05.31,2.52-1.33,2.51-1.83-.02-1.37-1.51-1.34-2.7.1-4.1.14-8.2.23-12.3.02-.85-.3-1.95.93-2.23,1.12-.26,2.05-.07,2.79,1.11,2.49,3.97,5.1,7.85,7.67,11.77.23-.04.47-.08.7-.12Z"/><path class="cls-21" d="M185.75,175.16c0-2.21,0-4.41,0-6.62,0-.69-.1-1.43.59-1.91.78-.54,7.42-.12,8.21.62,1.76,1.65,2.61,3.51,1.23,5.88-.53.92.15,1.62.62,2.43,2.24,3.83.02,8.14-4.36,8.2-7.81.11-6.12,1.11-6.31-5.89-.02-.9,0-1.81,0-2.71Z"/><path class="cls-20" d="M320.03,177.6c.06-.32-.02-1.4.47-2.03,1.42-1.81,1.88-3.66,1.51-5.95-.24-1.52.99-2.68,2.4-3.05,1.41-.36,3.06-.61,4.1.93,1.03,1.52,1.17,3.17.36,4.84-.51,1.04-2.38,1.74-.93,3.23,1.03,1.06,1.62,3.03,4.01,1.54,1.18-.74,1.61.82,1.11,1.83-.63,1.29-.48,2.25.56,3.18.4.36,1.11.77.37,1.41-.5.43-1.23.46-1.68.06-1.22-1.07-2.17-.53-3.48,0-4.38,1.76-8.79-1.05-8.81-5.99Z"/><path class="cls-20" d="M503.44,179.05c0,1,.06,1.99-.01,2.99-.12,1.78-.93,2.68-2.31,1-1.13-1.37-1.71-.19-2.48.14-4.64,1.99-9.63.06-11.51-4.46-1.93-4.65.12-10.22,4.53-11.82,2.59-.94,5.29-1.08,7.76.58.72.48,1.79.93.95,2.05-.72.96-1.34.14-2.03-.25-3.57-2.05-7.11-1.04-8.84,2.49-1.8,3.66-.06,8.49,3.54,9.84,3.19,1.19,6.71-.65,7.57-3.92.53-2.04-1-1.45-1.95-1.58-.74-.1-1.84.27-1.85-.91,0-1.13,1.06-.93,1.83-.99q4.6-.35,4.81,4.83Z"/><path class="cls-22" d="M440.38,183.93c-4.85-.05-8.86-4.1-8.69-8.77.2-5.38,3.68-8.83,8.89-8.79,4.74.03,8.58,4.14,8.4,9-.17,4.86-3.94,8.61-8.6,8.56Z"/><path class="cls-22" d="M466.4,174.72c.12-5.17,3.66-8.48,8.91-8.33,4.46.13,8.16,4.09,8.09,8.67-.08,5.22-3.79,8.94-8.84,8.87-4.77-.07-8.28-4.03-8.15-9.21Z"/><path class="cls-31" d="M264.28,174.5c.38-2.32-1.29-6,.71-7.6,1.68-1.34,5.18-.4,7.88-.47.4,0,.81-.06,1.2.01.68.13,1.84-.37,1.75.96-.06.88-.91.94-1.63.95-1.4.01-2.82.11-4.21,0-2.23-.18-2.92.73-2.95,2.96-.03,2.44,1.26,2.41,3.03,2.48,1.36.05,3.83-.84,3.82.97,0,1.68-2.5.89-3.82.81-2.43-.14-3.01.77-3.03,3.08-.02,2.39.71,3.27,3.08,3.02,1.49-.16,3.01-.04,4.51.01.73.03,1.47.24,1.39,1.18-.06.73-.7.94-1.32.95-2.91.03-5.81.04-8.72.02-1.53-.01-1.7-1.07-1.69-2.28.02-2.2,0-4.41,0-7.04Z"/><path class="cls-24" d="M407.57,175.47c0,2.2.01,4.4,0,6.6,0,.79.07,1.73-1.13,1.69-1.06-.03-1.24-.84-1.26-1.69-.02-.8-.13-1.62,0-2.4.48-2.91-.68-3.78-3.58-3.66-5.28.21-4.24-.1-4.36,4.33-.02.7,0,1.4-.02,2.1-.03.77-.26,1.39-1.2,1.37-.9-.02-1.19-.61-1.19-1.39,0-4.8,0-9.6,0-14.4,0-.91.28-1.6,1.36-1.52.93.07,1.07.74,1.06,1.5,0,.7,0,1.4,0,2.1.03,4.64-.4,4.04,3.94,4.1,3.92.06,3.89.03,4.02-4.97.03-1.02-.69-2.78,1.31-2.68,1.7.08,1.03,1.66,1.07,2.62.1,2.1.03,4.2.03,6.3,0,0-.01,0-.02,0Z"/><path class="cls-19" d="M22.64,199.57c-.41.79-.83,1.58-1.24,2.37-.07,1.75,1.28,1.18,2.12,1.23,8.67.5,17.35.3,26.02.33,1.28,0,2.88.27,3.55-.94.72-1.29-1.19-1.86-1.52-2.97.02-.21.04-.42.07-.63,1.89-1.03,3.95-1.66,5.13.69.97,1.92-.45,3.47-1.97,4.52-1.36.94-2.84,1.55-4.69,1.49-5.71-.17-11.43-.06-17.15-.06-4.01,0-8.03.02-12.04-.01-.83,0-2.28.37-2.24-.76.04-1.07-.62-2.87.44-3.22,2.1-.7,1.25-2.11,1.22-3.43,1.39-.35,1.06,1.79,2.28,1.4Z"/><path class="cls-1" d="M361.01,174.9q-.08-8.59,8.61-8.47c.5,0,1,0,1.5.03.63.04,1.26.16,1.2.98-.06.78-.71.88-1.33.89-1.8.03-3.62.13-5.41,0-2.14-.15-2.18,1.13-2.15,2.66.03,1.45-.15,2.92,2.06,2.74,1.19-.09,2.4,0,3.61.02.65.01,1.29.27,1.35.94.07.8-.66.88-1.27.91-.7.04-1.4.03-2.1.03-3.84.02-3.74.02-3.66,3.84.04,1.76.72,2.25,2.34,2.19,1.79-.07,3.59.05,5.39.09.66.01,1.24.24,1.32.95.1.94-.56,1.17-1.35,1.17-2.71,0-5.41-.01-8.12,0-1.6,0-2.03-.93-2.01-2.34.04-2.2,0-4.41,0-6.61Z"/><path class="cls-13" d="M202.06,173.09c0-1.5-.04-3,.02-4.5.03-.8-.42-2.04,1.03-2.02,1.49.03,1.36,1.28,1.22,2.24-.39,2.6-.34,5.2-.16,7.79.25,3.57,2.16,5.6,4.75,5.43,2.88-.19,3.97-1.99,4.03-4.61.06-2.9,0-5.81.04-8.71.01-.91-.4-2.22,1.23-2.18,1.34.03,1.16,1.12,1.17,2,0,3.1.09,6.21-.04,9.31-.16,3.89-2.5,6.07-6.3,6.11-4.47.04-6.67-1.85-6.94-6.05-.1-1.6-.02-3.2-.02-4.8h-.03Z"/><path class="cls-20" d="M285.52,183.94c-1.7.27-3.25-.61-4.7-1.74-.59-.45-1.01-.97-.42-1.76.63-.86,1.14-.45,1.72.06,1.53,1.36,3.25,1.95,5.25,1.19,1.2-.45,2.1-1.19,2.11-2.62,0-1.29-.79-2.04-1.85-2.48-1.48-.61-3.03-1.03-4.52-1.64-2.14-.87-3.08-2.53-2.67-4.79.4-2.23,1.9-3.46,4.11-3.73,2.03-.25,4-.02,5.79,1.1.79.49,1.77,1.02,1.19,2.06-.6,1.07-1.55.57-2.29-.05-1.13-.95-2.41-1.41-3.89-1.26-1.37.14-2.21.91-2.47,2.23-.27,1.38.33,2.33,1.67,2.79,1.13.39,2.27.75,3.4,1.14,2.72.95,4.59,2.47,3.96,5.75-.43,2.2-2.93,3.76-6.39,3.76Z"/><path class="cls-18" d="M225.78,166.39c1.45-.08,2.9.24,4.17,1.15.7.5,1.8,1.04,1.15,2.09-.66,1.06-1.55.4-2.29-.19-.88-.7-1.85-1.15-3.01-1.18-1.6-.05-2.79.53-3.18,2.12-.42,1.71.62,2.6,2.09,3.13,1.5.54,3.02,1.04,4.5,1.63,1.64.66,2.49,1.83,2.48,3.7,0,1.89-.67,3.25-2.36,4.17-3.1,1.69-5.99,1.07-8.77-.72-.58-.37-1.73-.6-.81-1.72.62-.75,1.25-.86,2.01-.11,1.21,1.18,2.68,1.81,4.38,1.52,1.46-.24,2.76-.96,3.02-2.53.27-1.66-.83-2.56-2.27-3.07-.94-.33-1.9-.64-2.85-.96-3.16-1.07-4.5-2.8-3.83-5.47.69-2.73,2.78-3.72,5.59-3.56Z"/><path class="cls-21" d="M302.51,166.38c1.71-.18,3.35.55,4.86,1.59.73.5,1.03,1.28.33,2.05-.63.7-1.23.35-1.8-.18-1.49-1.39-3.17-2.24-5.15-1.15-2.13,1.18-2.1,3.28.07,4.38,1.51.76,3.17,1.23,4.75,1.83,1.9.73,2.88,2.21,2.89,4.15.01,1.95-1.01,3.39-2.85,4.21-2.72,1.21-6.26.75-8.21-1.02-.6-.54-.99-1.02-.49-1.76.62-.93,1.13-.25,1.71.13,1.53,1,3.11,1.88,5.05,1.22,1.33-.45,2.31-1.27,2.43-2.74.12-1.46-.88-2.1-2.1-2.53-1.13-.39-2.23-.93-3.38-1.22-2.79-.71-4.18-2.53-3.7-5.28.5-2.83,2.71-3.75,5.59-3.68Z"/><path class="cls-13" d="M385.06,183.93c-4.09-.01-7.12-2.08-8.36-5.38-1.34-3.57-.4-7.92,2.2-10.23,2.39-2.12,6.65-2.69,9.58-1.15.84.44,2.51.75,1.68,2.22-.75,1.33-1.59.19-2.42-.34-2.3-1.47-5.34-.97-7.39,1.11-2.13,2.15-2.5,6.35-.79,8.91,1.78,2.67,4.56,3.65,7.27,2.53.45-.19.91-.44,1.28-.75.71-.6,1.5-.89,2.03.01.58.99-.46,1.36-1.05,1.79-1.34.96-2.81,1.54-4.03,1.27Z"/><path class="cls-13" d="M514.37,174.33c1.42-2.17,2.76-4.02,3.89-5.99.77-1.33,1.69-2.72,3.16-1.63,1.09.81-.42,1.83-.95,2.66-1.49,2.36-3.15,4.64-4.56,7.05-1.07,1.82-.29,3.93-.48,5.9-.06.61-.09,1.24-.86,1.36-.75.11-1.28-.36-1.15-1,1.26-6.31-3.74-9.97-6.16-14.72-.18-.34-.4-.66-.63-1.02q2.4-.57,4.41,2.46c1.04,1.57,2.1,3.12,3.32,4.93Z"/><path class="cls-41" d="M350.18,176.16c0-1.2-.09-2.41.02-3.59.25-2.77-.17-4.82-3.73-4.24-.69.11-1.56-.06-1.53-.98.03-.92.9-.91,1.6-.91,3.3,0,6.6-.01,9.89,0,.69,0,1.52-.01,1.43,1.04-.07.77-.77.96-1.34.85-3.99-.78-4.07,1.63-3.92,4.52.15,2.99.03,5.99.03,8.99,0,1.01.13,2.17-1.44,1.98-1.17-.14-1.24-.91-1.15-1.97.15-1.88.04-3.79.04-5.68.04,0,.07,0,.11,0Z"/><path class="cls-24" d="M452.63,174.98c0-1.9-.09-3.81.03-5.71.07-1-.84-2.77,1.23-2.7,1.72.06,1.09,1.63,1.11,2.6.06,3.31.1,6.62-.04,9.92-.08,1.98.63,2.72,2.59,2.58,1.49-.11,3.01-.03,4.51.04.75.03,1.42.35,1.35,1.26-.06.79-.73.86-1.34.86-2.61.02-5.21,0-7.82.02-1.38.01-1.64-.8-1.63-1.95.03-2.3,0-4.61,0-6.92Z"/><path class="cls-15" d="M236.4,175.12c0-2.3-.01-4.6,0-6.9,0-.79-.05-1.73,1.15-1.67,1.07.06,1.22.9,1.22,1.73.01,4.6,0,9.2,0,13.8,0,.87-.23,1.65-1.28,1.66-1.21.01-1.07-.95-1.08-1.73-.02-2.3,0-4.6,0-6.9Z"/><path class="cls-2" d="M155.69,175c-2.34-4.01-4.01-8.32-5.44-12.72,1.71.38,2.88,1.19,2.5,3.21-.31,1.65.89,2.81,1.65,3.94,1.18,1.78,1.55,3.56,1.29,5.57Z"/><path class="cls-44" d="M396.08,126.01c-1.98-1.83-2.83-4.45-4.56-6.46-.82-.95-.2-1.58.69-2.11,1.1-.66,2.16-1.39,3.23-2.09.34-.41.73-.42,1.16-.16-.3,1.75-1.9,2.13-3.12,2.88-1.37.84-1.35,1.79-.03,2.44,2.41,1.18,2.6,3.27,2.62,5.5Z"/><path class="cls-42" d="M72,82.67c.92,3.98-2.14,6.88-2.93,10.42-.3,1.37-1.3,2.63-1.27,4.21.02,1.09-.72.61-1.26.49.44-1.58.88-3.16,1.31-4.74.78-3.7,2.17-7.15,4.15-10.37Z"/><path class="cls-40" d="M51.5,137.55c-1.11,4.7-3.19,9.02-5.31,13.32.38-4.99,2.8-9.17,5.31-13.32Z"/><path class="cls-10" d="M72,82.67c-1.38,3.46-2.77,6.91-4.15,10.37-.11-2.17-.09-4.16,1.54-6.07.99-1.16,1.48-3.05,1.42-4.79-.05-1.36.71-1.98,1.81-2.4-.21.96-.41,1.93-.62,2.89Z"/><path class="cls-9" d="M126.75,222.57c.79-.42,1.91.26,2.51-.77,2.93.37,5.35,1.93,8.02,3.4-1.68.75-2.97-.5-4.39-.41-1.62-.58-3.57-.19-4.9-1.63-.42-.19-.83-.39-1.25-.58Z"/><path class="cls-4" d="M467.78,110.49c-.87,3.67-2.37,7.08-4.19,10.37.47-3.83.91-7.67,4.19-10.37Z"/><path class="cls-36" d="M161.04,186.33c-3.43-.47-2.83-3.11-2.89-5.39,1.31,1.61,2.11,3.49,2.89,5.39Z"/><path class="cls-45" d="M260.55,135.53c-.09.7.03,1.65-1.11,1.62-.58-.02-1.18-.35-1.19-1.05-.01-1,.64-1.71,1.53-1.87.81-.14.72.7.77,1.3Z"/><path class="cls-37" d="M161.16,191.85c.78-.23,1.74.19,2.35-.64,1.06.48,1.57,1.36,1.83,2.66-1.91.24-2.92-1.18-4.18-2.01Z"/><path class="cls-23" d="M399.05,112.27c.97-2.1,2.28-3.94,4.1-5.4-.74,2.27-2.05,4.12-4.1,5.4Z"/><path class="cls-6" d="M32.23,182.09c-.44,1.96-.81,3.96-2.84,5.02.52-1.91,1.07-3.81,2.84-5.02Z"/><path class="cls-30" d="M128,223.15c1.74.23,3.35.85,4.9,1.63-1.65-.5-4.15,1.55-4.9-1.63Z"/><path class="cls-16" d="M29.29,188.13c-.25,1.73-1.15,3.11-2.31,4.35-.55-2.15.42-3.5,2.31-4.35Z"/><path class="cls-28" d="M93.22,71.44c-.13-1.01-.15-2.32,1.13-2.14,1.18.16,1.19,1.58,1.14,2.67-.66-.61-1.4-.87-2.27-.53Z"/><path class="cls-23" d="M396.61,115.18c-.39.05-.78.11-1.16.16,1-1.26,1.3-3.35,3.61-3.08-.82.97-1.63,1.95-2.45,2.92Z"/><path class="cls-26" d="M326.8,126.15c-.25-.05-.5-.09-.74-.14.45-1.12.79-2.29,1.83-3.06-.04,1.17.8,2.65-1.08,3.2Z"/><path class="cls-45" d="M260.16,139.01c.48.2.82.52.88,1.07.06.6-.24.98-.82.96-.58-.01-.81-.46-.82-1.01,0-.53.12-.97.76-1.02Z"/><path class="cls-38" d="M92.52,188.75c-.93-1.12-1.98-2.17-2.38-3.64,1.74.59,2.64,1.74,2.38,3.64Z"/><path class="cls-3" d="M278.79,104.45c0-8.62.09-17.24-.06-25.85-.04-2.58.8-3.23,3.27-3.1,4.2.21,8.44.34,12.62,0,12.11-.96,21.73,8.11,25.07,18.49,3.69,11.44,1.79,22.11-6,31.25-3.79,4.44-8.86,7.53-15.1,7.65-5.81.11-11.63.1-17.44.22-2.06.04-2.42-.99-2.41-2.79.07-8.62.03-17.24.03-25.85Z"/><path class="cls-29" d="M51.58,199.58c1.16,1.06,2.33,2.12,3.43,3.12-.86,1.19-1.72.94-2.48.94-9.97.03-19.95.04-29.92.02-1.05,0-2.92.31-1.21-1.73,3.22,1.16,6.63,1.01,9.95,1.16,5.7.25,11.42.08,17.14.07,3.71,0,3.97-.32,3.1-3.58Z"/><path class="cls-32" d="M362.91,93.31c0-5.11.05-10.23-.03-15.34-.03-1.79.53-2.5,2.39-2.47,5.31.1,10.64-.2,15.94.11,6.86.39,11,4.51,13.45,10.71,3.23,8.2.07,18.42-7.16,22.75-1.92,1.15-3.99,1.91-6.24,1.93-5.32.05-10.63-.01-15.95.09-1.83.03-2.46-.59-2.43-2.43.09-5.11.03-10.23.03-15.34Z"/><path class="cls-8" d="M219.39,84.61c.99,1.03,1.62,2.09,2.06,3.32,2.75,7.62,5.48,15.25,8.37,22.82.7,1.84.31,2.24-1.52,2.35-5.72.35-11.43.16-17.15.1-1.42-.01-2.9-.07-2.01-2.39,3.26-8.51,6.4-17.06,9.6-25.59.06-.17.28-.28.64-.62Z"/><path class="cls-12" d="M243.05,116.49c1.88,2.09,2.78,4.58,2.96,7.36-1.28-2.33-2.5-4.69-2.96-7.36Z"/><path class="cls-14" d="M493.58,96.02c1.86,4.95,3.62,9.95,5.64,14.84.87,2.11.04,2.44-1.72,2.43-5.81,0-11.62-.04-17.42.04-2.14.03-2.05-1.05-1.51-2.47,1.8-4.75,3.62-9.5,5.43-14.25,1.29-2.72,2.26-5.59,3.47-8.34.33-.76.13-1.97,1.29-2.08,1.31-.13,1.16,1.4,1.91,1.97h0c.94,2.63,1.47,5.41,2.93,7.86Z"/><path class="cls-35" d="M490.66,88.16c-.65-.51-1.3-1.02-2.03-1.58-1.36,3.54-2.14,7.19-4.64,10.03.96-4.53,3.05-8.64,4.8-13,.61,1.59,1.96,2.76,1.87,4.54Z"/><path class="cls-35" d="M493.58,96.02c-2.31-2.12-2.54-5.02-2.93-7.86,1.35,2.48,2.4,5.07,2.93,7.86Z"/><path class="cls-33" d="M190.64,181.59c-2.92.64-2.58-1.65-2.73-3.32-.2-2.24.84-3.14,3.2-2.97,2.21.16,3.74.7,3.65,3.22-.09,2.63-1.7,3.38-4.13,3.07Z"/><path class="cls-7" d="M189.79,168.3c2.43.05,4.01.23,3.98,2.51-.02,2.07-1.38,2.27-3.04,2.38-2.06.14-2.89-.67-2.94-2.7-.05-2.07,1.17-2.27,2.01-2.19Z"/><path class="cls-11" d="M325.64,181.64c-2.05.2-3.18-1.24-3.52-3.47-.17-1.14.31-2.29,1.24-2.88,1.2-.75,1.66.6,2.29,1.24.69.7,1.34,1.46,1.92,2.27.47.66,1.64,1.17,1.03,2.18-.51.85-1.61.57-2.95.66Z"/><path class="cls-17" d="M325.72,171.96c-.99-.08-1.78-.51-1.81-1.59-.03-1.02.62-1.76,1.61-1.85,1.05-.09,1.64.69,1.78,1.67.16,1.11-.5,1.64-1.57,1.77Z"/><path class="cls-39" d="M446.56,175.17c-.02,3.64-2.87,6.81-6.17,6.85-3.22.04-6.26-3.21-6.3-6.75-.05-3.58,3.05-6.99,6.39-7.03,3.15-.04,6.1,3.32,6.08,6.94Z"/><path class="cls-39" d="M480.96,175.33c-.08,3.7-3.05,6.87-6.3,6.72-3.17-.15-6.21-3.65-6.14-7.05.08-3.35,3.39-6.8,6.48-6.74,3.24.07,6.03,3.39,5.96,7.07Z"/></svg>