<svg width="68" height="29" viewBox="0 0 68 29" fill="none" xmlns="http://www.w3.org/2000/svg">
<path d="M30.4886 24.1692H23.186C20.6894 26.4188 17.3389 27.7388 13.687 27.5755C6.81869 27.2674 1.27439 21.6872 1.01012 14.8176C0.717965 7.24947 6.78948 1 14.2939 1C17.7094 1 20.8289 2.29478 23.186 4.41954H58.7639C59.1676 4.41954 59.55 4.6028 59.8023 4.91753L61.2605 6.74218M64.1807 10.3915L66.7092 13.5507C67.0996 14.0394 67.0969 14.7353 66.7012 15.2213L59.8023 23.6805C59.6775 23.8332 59.5203 23.9563 59.3421 24.0408C59.1639 24.1253 58.9691 24.1692 58.7718 24.1692H35.1365" stroke="white" stroke-width="1.99197" stroke-miterlimit="10" stroke-linecap="round" stroke-linejoin="round"/>
<path d="M20.1627 7.07243C22.2595 8.77888 23.5989 11.3801 23.5989 14.2942C23.5989 19.4339 19.4323 23.6004 14.2927 23.6004C9.15299 23.6004 4.98633 19.4339 4.98633 14.2942C4.98633 9.15457 9.15286 4.98804 14.2925 4.98804C14.849 4.98804 15.394 5.03691 15.9234 5.13053" stroke="white" stroke-width="1.99197" stroke-miterlimit="10" stroke-linecap="round" stroke-linejoin="round"/>
<path d="M32.3009 15.7275C32.4179 15.8199 32.6182 15.9462 32.9016 16.1064C33.1912 16.2666 33.4654 16.3467 33.7242 16.3467C33.9892 16.3467 34.1217 16.245 34.1217 16.0417C34.1217 15.9493 34.0847 15.8692 34.0107 15.8014C33.9368 15.7275 33.8012 15.6443 33.6041 15.5518C33.4069 15.4594 33.259 15.3886 33.1604 15.3393C33.0618 15.2838 32.9294 15.1975 32.763 15.0805C32.6028 14.9572 32.4795 14.8309 32.3933 14.7015C32.1468 14.3503 32.0236 13.9036 32.0236 13.3613C32.0236 12.8191 32.2238 12.3631 32.6243 11.9934C33.031 11.6176 33.5609 11.4296 34.2141 11.4296C34.6577 11.4296 35.0675 11.4789 35.4434 11.5775C35.8192 11.6699 36.0133 11.7932 36.0256 11.9472C36.0256 11.9657 36.0256 11.9842 36.0256 12.0027C36.0256 12.2183 35.9579 12.4925 35.8223 12.8253C35.6867 13.1518 35.5912 13.3336 35.5358 13.3706C35.1414 13.1672 34.7871 13.0656 34.4729 13.0656C34.1648 13.0656 34.0107 13.1765 34.0107 13.3983C34.0107 13.5339 34.1247 13.654 34.3527 13.7588C34.402 13.7834 34.4729 13.8173 34.5653 13.8604C34.6577 13.9036 34.7625 13.956 34.8795 14.0176C35.0028 14.073 35.1322 14.147 35.2677 14.2394C35.4095 14.3257 35.5604 14.4427 35.7206 14.5906C36.0472 14.8987 36.2105 15.3054 36.2105 15.8106C36.2105 16.47 36.0287 17.0091 35.6652 17.4281C35.3016 17.8471 34.7409 18.0628 33.983 18.0751C33.6133 18.0751 33.2775 18.0443 32.9756 17.9827C32.6798 17.921 32.421 17.8009 32.1992 17.6222C31.9774 17.4435 31.8664 17.2278 31.8664 16.9752C31.8664 16.7226 31.9127 16.473 32.0051 16.2266C32.0975 15.9739 32.1961 15.8076 32.3009 15.7275ZM41.8785 17.8348C41.8785 17.958 41.5735 18.0196 40.9635 18.0196C40.3535 18.0196 40.0485 17.958 40.0485 17.8348V13.195H38.9394C38.8346 13.195 38.7607 13.0533 38.7176 12.7698C38.6991 12.6343 38.6898 12.4956 38.6898 12.3539C38.6898 12.2122 38.6991 12.0735 38.7176 11.938C38.7607 11.6545 38.8346 11.5128 38.9394 11.5128H42.9599C43.0647 11.5128 43.1386 11.6545 43.1818 11.938C43.2002 12.0735 43.2095 12.2122 43.2095 12.3539C43.2095 12.4956 43.2002 12.6343 43.1818 12.7698C43.1386 13.0533 43.0647 13.195 42.9599 13.195H41.8785V17.8348ZM48.8656 14.0823C48.9826 14.0823 49.0412 14.2979 49.0412 14.7293C49.0412 14.8586 49.0258 15.0127 48.995 15.1914C48.9703 15.3639 48.921 15.4502 48.8471 15.4502H47.6733V16.3744H49.3739C49.4787 16.3744 49.5495 16.51 49.5865 16.7811C49.605 16.8982 49.6142 17.0245 49.6142 17.1601C49.6142 17.2895 49.5957 17.4589 49.5588 17.6684C49.5218 17.8779 49.4602 17.9827 49.3739 17.9827H46.2129C45.9788 17.9827 45.8617 17.8872 45.8617 17.6961V11.7531C45.8617 11.5929 45.9326 11.5128 46.0743 11.5128H49.3831C49.5125 11.5128 49.5772 11.787 49.5772 12.3354C49.5772 12.8776 49.5125 13.1488 49.3831 13.1488H47.6733V14.0823H48.8656ZM53.3498 18.0012C52.789 18.0012 52.5087 17.9395 52.5087 17.8163V11.8271C52.5087 11.6176 52.6042 11.5128 52.7952 11.5128H54.4219C55.3338 11.5128 55.9901 11.7007 56.3906 12.0766C56.7973 12.4525 57.0006 12.9978 57.0006 13.7126C57.0006 14.3041 56.8096 14.8463 56.4276 15.3393C56.2365 15.5857 55.9562 15.7829 55.5865 15.9308C55.2168 16.0787 54.7855 16.1526 54.2925 16.1526V17.8071C54.2925 17.881 54.1754 17.9334 53.9413 17.9642C53.7133 17.9888 53.5161 18.0012 53.3498 18.0012ZM54.2925 13.121V14.5814H54.4127C54.6283 14.5814 54.8101 14.5136 54.958 14.378C55.1059 14.2425 55.1798 14.0515 55.1798 13.805C55.1798 13.5585 55.1274 13.3829 55.0227 13.2782C54.9241 13.1734 54.7454 13.121 54.4866 13.121H54.2925Z" fill="white"/>
<path d="M16.4276 17.9827H13.359C13.1434 17.9827 12.9924 17.7732 12.9061 17.3542C12.863 17.1262 12.8414 16.9537 12.8414 16.8366C12.8414 16.7195 12.8599 16.6425 12.8969 16.6055C14.2771 15.1821 14.9672 14.2147 14.9672 13.7033C14.9672 13.5308 14.921 13.4014 14.8286 13.3151C14.7423 13.2289 14.6006 13.1857 14.4034 13.1857C14.2124 13.1857 14.0183 13.2227 13.8212 13.2966C13.6301 13.3706 13.4792 13.4507 13.3683 13.537C13.128 13.2473 12.9616 12.9423 12.8692 12.6219C12.8384 12.5172 12.8229 12.4217 12.8229 12.3354C12.8229 12.243 12.8384 12.1567 12.8692 12.0766C12.9185 11.9164 13.1464 11.7654 13.5531 11.6237C13.966 11.482 14.4004 11.4111 14.8563 11.4111C16.2366 11.4111 16.9267 12.0242 16.9267 13.2504C16.9267 13.7927 16.7418 14.3441 16.3721 14.9049C16.0024 15.4594 15.5711 15.94 15.0782 16.3467L16.9452 16.2728C16.976 16.5993 16.9914 16.8828 16.9914 17.1231C16.9914 17.3634 16.9421 17.5667 16.8435 17.7331C16.7449 17.8995 16.6063 17.9827 16.4276 17.9827Z" fill="white"/>
</svg>
