<svg width="33" height="29" viewBox="0 0 33 29" fill="none" xmlns="http://www.w3.org/2000/svg">
<path d="M28.9418 18.1091L21.5328 14.9443C20.9401 14.6912 20.2703 15.0779 20.1931 15.7178L19.2294 23.7165C19.1341 24.5075 19.9827 25.0678 20.6727 24.6695L21.9286 23.9444L24.3456 28.1307C24.6125 28.5931 25.2038 28.7516 25.6662 28.4846L29.8526 26.0676C30.315 25.8006 30.4735 25.2093 30.2064 24.7469L27.7894 20.5606L29.0454 19.8355C29.7354 19.4371 29.6745 18.422 28.9418 18.1091ZM15.5667 9.16443H14.8693L14.6719 9.16514V10.3069C15.0155 10.3055 15.4003 10.3042 15.5667 10.3042C15.881 10.3042 16.1366 10.0485 16.1366 9.73426C16.1366 9.42012 15.881 9.16443 15.5667 9.16443ZM15.3379 7.87414C15.5549 7.87414 15.7315 7.69754 15.7315 7.48053C15.7315 7.26352 15.5549 7.08691 15.3379 7.08691H14.6719V7.87537H14.8699C15.0648 7.87472 15.2428 7.87414 15.3379 7.87414Z" fill="#D94828"/>
<path d="M22.2924 13.1661L29.6571 16.312C30.0893 16.4965 30.4725 16.7794 30.7759 17.1382L30.7893 17.1379C32.0845 16.6097 33 15.3373 33 13.8545V3.54199C33 1.58732 31.4097 -0.00292969 29.4551 -0.00292969H3.54492C1.59025 -0.00292969 0 1.58732 0 3.54199V13.8545C0 15.8092 1.59025 17.3994 3.54492 17.3994H18.043L18.2735 15.4864C18.5048 13.5667 20.5143 12.4066 22.2924 13.1661ZM27.1905 6.12012H29.3262C29.6821 6.12012 29.9707 6.40867 29.9707 6.76465C29.9707 7.12062 29.6821 7.40918 29.3262 7.40918H28.8985V10.6318C28.8985 10.9878 28.61 11.2764 28.254 11.2764C27.898 11.2764 27.6095 10.9878 27.6095 10.6318V7.40918H27.1905C26.8345 7.40918 26.546 7.12062 26.546 6.76465C26.546 6.40867 26.8345 6.12012 27.1905 6.12012ZM24.4277 6.76465C24.4277 6.40867 24.7163 6.12012 25.0723 6.12012C25.4282 6.12012 25.7168 6.40867 25.7168 6.76465V10.6318C25.7168 10.9878 25.4282 11.2764 25.0723 11.2764C24.7163 11.2764 24.4277 10.9878 24.4277 10.6318V6.76465ZM7.15945 10.0896C7.00328 10.964 6.17152 11.5986 5.18164 11.5986C4.38603 11.5986 3.63889 11.2777 3.13178 10.7181C2.89279 10.4543 2.91277 10.0467 3.17657 9.80767C3.44025 9.56862 3.84792 9.58866 4.08697 9.85247C4.34633 10.1386 4.75554 10.3095 5.18158 10.3095C5.57017 10.3095 5.85202 10.0777 5.89044 9.86291C5.94097 9.57977 5.4898 9.38989 5.35032 9.33846C4.8943 9.16906 4.4434 8.98619 3.99822 8.79009C3.96719 8.77623 3.9373 8.75996 3.90882 8.74143C3.40654 8.414 3.1477 7.83986 3.23342 7.24302C3.32443 6.60893 3.78669 6.09285 4.43992 5.89608C5.71383 5.51226 6.76088 6.37574 6.80483 6.41273C7.07734 6.6418 7.11253 7.04837 6.88346 7.32081C6.65543 7.59203 6.2517 7.62819 5.97919 7.40267C5.9605 7.38785 5.40356 6.95201 4.81168 7.13029C4.5665 7.20415 4.51862 7.36174 4.50933 7.42607C4.50192 7.47769 4.50321 7.56935 4.583 7.63902C4.75187 7.71282 5.25596 7.92957 5.7964 8.12899C6.98143 8.56618 7.27747 9.42843 7.15945 10.0896ZM12.3956 9.54367C12.3956 10.3231 11.9677 10.9679 11.1907 11.3592C10.8752 11.5181 10.5278 11.5986 10.1581 11.5986H10.1546C9.72443 11.5981 9.32811 11.4839 8.97677 11.2594C8.30981 10.8333 7.97156 10.2571 7.97156 9.54696V6.44238C7.97156 6.08641 8.26012 5.79785 8.61609 5.79785C8.97207 5.79785 9.26062 6.08641 9.26062 6.44238V9.5469C9.26062 9.77164 9.32927 9.95482 9.67087 10.1731C9.81421 10.2646 9.97296 10.3093 10.1563 10.3096H10.1581C10.3269 10.3096 10.4751 10.2763 10.6109 10.2079C11.0477 9.98795 11.1065 9.7487 11.1065 9.54367V6.44238C11.1065 6.08641 11.3951 5.79785 11.751 5.79785C12.107 5.79785 12.3956 6.08641 12.3956 6.44238L12.3956 9.54367ZM15.5668 11.5933C15.2348 11.5933 14.0303 11.5986 14.0302 11.5986H14.0274C13.9427 11.5986 13.8589 11.582 13.7807 11.5496C13.7025 11.5172 13.6315 11.4697 13.5716 11.4099C13.5118 11.35 13.4643 11.279 13.4319 11.2008C13.3995 11.1226 13.3828 11.0387 13.3829 10.9541V6.44238C13.3829 6.08641 13.6714 5.79785 14.0274 5.79785H15.3379C16.2658 5.79785 17.0206 6.55266 17.0206 7.48053C17.0206 7.7919 16.9353 8.08355 16.7873 8.33395C17.1781 8.67498 17.4257 9.17616 17.4257 9.73439C17.4257 10.7594 16.5918 11.5933 15.5668 11.5933ZM18.1458 10.4871L18.8255 6.72121L18.8269 6.71392C18.8575 6.55517 18.9398 6.41102 19.0609 6.30393C19.1821 6.19685 19.3352 6.13285 19.4966 6.12192C19.8282 6.1002 20.1335 6.30407 20.2394 6.61905C20.242 6.62665 20.2443 6.63432 20.2466 6.64199L20.8078 8.54407L21.3482 6.64831C21.3943 6.48916 21.493 6.35035 21.6282 6.2546C21.7635 6.15886 21.9272 6.11186 22.0926 6.12128C22.2553 6.13058 22.4102 6.19388 22.5329 6.30115C22.6555 6.40843 22.7389 6.55354 22.7698 6.71354L23.4897 10.4806C23.5566 10.8302 23.3273 11.1679 22.9777 11.2347C22.6282 11.3015 22.2904 11.0722 22.2236 10.7226L21.9442 9.26008L21.5199 10.7481C21.4762 10.8999 21.3843 11.0335 21.2583 11.1287C21.1322 11.2239 20.9786 11.2757 20.8206 11.2763H20.8169C20.6595 11.2765 20.5062 11.2258 20.3799 11.1318C20.2536 11.0378 20.161 10.9054 20.116 10.7546L19.6764 9.26453L19.4144 10.716C19.3512 11.0663 19.0162 11.2992 18.6657 11.2358C18.3153 11.1727 18.0826 10.8374 18.1458 10.4871Z" fill="#D94828"/>
</svg>
