<svg width="33" height="33" viewBox="0 0 33 33" fill="none" xmlns="http://www.w3.org/2000/svg">
<path d="M32.8702 14.5948C32.8195 14.1125 32.7433 13.6556 32.6418 13.1734V13.148C32.0072 10.0259 30.4589 7.13235 28.1491 4.82255C25.8393 2.51274 22.9711 0.989799 19.8491 0.329856C19.8237 0.329856 19.7983 0.329856 19.7983 0.304474C19.3668 0.253709 18.8845 0.177561 18.4276 0.126797C18.3515 0.126797 18.25 0.101414 18.1738 0.0760318C17.0593 -0.0253439 15.9379 -0.0253439 14.8233 0.0760318C14.7218 0.0760318 14.6457 0.101414 14.5695 0.126797C14.0872 0.177561 13.6304 0.253709 13.1735 0.329856C13.1481 0.329856 13.1227 0.329856 13.0973 0.355238C10.0007 0.989799 7.13246 2.53813 4.82266 4.82255C2.5472 7.08783 0.992857 9.97572 0.355354 13.1226V13.1734C0.228442 13.6556 0.177677 14.1125 0.126912 14.5948C0.126912 14.6709 0.10153 14.7471 0.10153 14.8232C0.0253823 15.3816 0 15.94 0 16.4985C0 17.0569 0.0253823 17.6153 0.0761472 18.1737C0.0761472 18.2498 0.10153 18.326 0.10153 18.4021C0.152294 18.8844 0.228442 19.3413 0.329971 19.8236V19.8743C0.964532 22.9964 2.51286 25.8646 4.82266 28.1744C7.13246 30.4842 10.0007 32.0071 13.0973 32.6671C13.1227 32.6671 13.1481 32.6671 13.1735 32.6924C13.6304 32.794 14.0872 32.8447 14.5441 32.8955C14.6203 32.8955 14.7218 32.9209 14.798 32.9463C15.3817 32.9716 15.9402 32.997 16.4986 32.997C17.057 32.997 17.6154 32.9716 18.1738 32.9209C18.25 32.9209 18.3515 32.8955 18.4276 32.8701C18.8845 32.8194 19.3668 32.7432 19.8237 32.6671C19.8491 32.6671 19.8744 32.6671 19.8744 32.6417C22.9965 32.0071 25.8647 30.4588 28.1745 28.149C30.4843 25.8392 32.0326 22.971 32.6672 19.8236V19.7982C32.7687 19.3413 32.8195 18.859 32.8956 18.3768C32.8956 18.3006 32.921 18.2245 32.921 18.1483C33.0263 17.0425 33.0263 15.9291 32.921 14.8232C32.8956 14.7471 32.8956 14.6709 32.8702 14.5948ZM29.1898 17.7676H30.332C30.2812 18.2245 30.2812 18.6813 30.2051 19.1382C30.2051 19.189 30.1797 19.2398 30.1797 19.2905C30.0274 20.1028 29.7736 20.8896 29.469 21.6511C29.4436 21.7526 29.4182 21.8288 29.3675 21.9303C29.0629 22.6664 28.6568 23.3771 28.2253 24.0624C28.1745 24.1639 28.1237 24.2401 28.0476 24.3416C27.7938 24.7224 27.4638 25.0523 27.1592 25.4077L26.347 24.5954C25.8393 24.0878 25.0525 24.0878 24.5448 24.5954C24.0372 25.1031 24.0372 25.89 24.5448 26.3976L25.357 27.2098C25.0017 27.5144 24.6717 27.8444 24.291 28.0982C24.2148 28.149 24.1133 28.1998 24.0372 28.2505C23.3518 28.682 22.6411 29.0881 21.905 29.3927C21.8289 29.4181 21.7274 29.4435 21.6258 29.4943C20.8644 29.7988 20.0775 30.0527 19.2653 30.205C19.2145 30.205 19.1637 30.2303 19.113 30.2303C18.6561 30.3065 18.1992 30.3319 17.7423 30.3573V29.1897C17.7423 28.479 17.1839 27.9205 16.4732 27.9205C15.7625 27.9205 15.2295 28.479 15.2295 29.1897V30.3319C14.7726 30.2811 14.3157 30.2811 13.8588 30.205C13.808 30.205 13.7573 30.1796 13.7065 30.1796C12.8943 30.0273 12.1074 29.7735 11.3459 29.4689C11.2698 29.4435 11.1683 29.4181 11.0667 29.3673C10.3306 29.0628 9.61994 28.6566 8.93461 28.2251C8.85847 28.1744 8.75694 28.1236 8.68079 28.0728C8.30005 27.819 7.97008 27.489 7.61473 27.1845L8.42696 26.3722C8.93461 25.8646 8.93461 25.0777 8.42696 24.5701C7.91932 24.0624 7.13246 24.0624 6.62481 24.5701L5.81257 25.3823C5.50799 25.027 5.2034 24.697 4.92419 24.3162C4.87343 24.2401 4.82266 24.1386 4.74651 24.037C4.31501 23.3517 3.90889 22.641 3.6043 21.9049C3.57892 21.8034 3.52816 21.7272 3.50277 21.6257C3.22357 20.8896 2.96974 20.1028 2.81745 19.2905C2.81745 19.2398 2.79207 19.189 2.79207 19.1382C2.71592 18.6813 2.71592 18.2245 2.66515 17.7676H3.80736C4.51807 17.7676 5.07648 17.2092 5.07648 16.4985C5.07648 15.7878 4.51807 15.2293 3.80736 15.2293H2.66515C2.71592 14.7725 2.71592 14.3156 2.79207 13.8587C2.79207 13.8079 2.81745 13.7572 2.81745 13.7064C2.96974 12.8942 3.22357 12.1073 3.52816 11.3458C3.57892 11.2697 3.6043 11.1682 3.62969 11.0666C3.93428 10.3305 4.34039 9.61982 4.7719 8.9345C4.82266 8.85835 4.87343 8.75682 4.94957 8.68067C5.2034 8.29994 5.53337 7.96996 5.83796 7.61461L6.65019 8.42685C6.76509 8.54662 6.90302 8.64192 7.05568 8.70703C7.20835 8.77213 7.37261 8.80569 7.53858 8.80569C7.70455 8.80569 7.86881 8.77213 8.02147 8.70703C8.17414 8.64192 8.31207 8.54662 8.42696 8.42685C8.93461 7.9192 8.93461 7.13235 8.42696 6.6247L7.61473 5.81246C7.97008 5.50787 8.30005 5.1779 8.68079 4.92407C8.75694 4.87331 8.85847 4.82255 8.93461 4.77178C9.61994 4.34028 10.3306 3.93416 11.0667 3.62957C11.1683 3.60419 11.2698 3.57881 11.3459 3.52804C12.1074 3.22345 12.8943 2.96963 13.7065 2.81733C13.7573 2.81733 13.808 2.79195 13.8588 2.79195C14.3157 2.7158 14.7726 2.7158 15.2295 2.66504V3.80725C15.2295 4.51796 15.7879 5.07637 16.4986 5.07637C17.2093 5.07637 17.7677 4.51796 17.7677 3.80725V2.66504C18.2246 2.7158 18.6815 2.7158 19.1383 2.79195C19.1891 2.79195 19.2399 2.81733 19.2906 2.81733C20.1029 2.96963 20.8897 3.22345 21.6512 3.52804C21.7274 3.55342 21.8289 3.57881 21.9304 3.62957C22.6665 3.93416 23.3772 4.34028 24.0625 4.77178C24.1387 4.82255 24.2402 4.87331 24.3164 4.92407C24.6971 5.1779 25.0271 5.50787 25.3824 5.81246L24.5702 6.6247C24.0625 7.13235 24.0625 7.9192 24.5702 8.42685C24.6851 8.54662 24.823 8.64192 24.9757 8.70703C25.1283 8.77213 25.2926 8.80569 25.4586 8.80569C25.6245 8.80569 25.7888 8.77213 25.9415 8.70703C26.0941 8.64192 26.2321 8.54662 26.347 8.42685L27.1592 7.61461C27.4638 7.96996 27.7684 8.29994 28.0476 8.68067C28.0983 8.75682 28.1491 8.85835 28.2253 8.95988C28.6568 9.6452 29.0629 10.3559 29.3675 11.092C29.3928 11.1935 29.4436 11.2697 29.469 11.3712C29.7736 12.1327 30.0274 12.9195 30.1797 13.7318C30.1797 13.7825 30.2051 13.8333 30.2051 13.8841C30.2812 14.341 30.3066 14.7978 30.332 15.2547H29.1898C28.4791 15.2547 27.9207 15.8131 27.9207 16.5238C27.9207 17.2345 28.4791 17.7676 29.1898 17.7676Z" fill="#D94828"/>
<path d="M21.5761 15.2295H17.7687V8.88387C17.7687 8.17316 17.2103 7.61475 16.4996 7.61475C15.7889 7.61475 15.2305 8.17316 15.2305 8.88387V16.4986C15.2305 17.2093 15.7889 17.7677 16.4996 17.7677H21.5761C22.2868 17.7677 22.8452 17.2093 22.8452 16.4986C22.8452 15.7879 22.2868 15.2295 21.5761 15.2295Z" fill="#D94828"/>
</svg>
